<svg width="212" height="170" viewBox="0 0 212 170" fill="none" xmlns="http://www.w3.org/2000/svg">
<g filter="url(#filter0_d_939_22732)">
<rect x="2" y="1" width="208" height="166" rx="8" fill="white" shape-rendering="crispEdges"/>
<rect x="18" y="17" width="24" height="24" rx="12" fill="#DEECE2"/>
<path d="M35.3538 26.1463L31.8538 22.6463C31.8073 22.5998 31.7521 22.563 31.6914 22.5379C31.6307 22.5128 31.5657 22.4999 31.5 22.5H25.5C25.2348 22.5 24.9804 22.6054 24.7929 22.7929C24.6054 22.9804 24.5 23.2348 24.5 23.5V34.5C24.5 34.7652 24.6054 35.0196 24.7929 35.2071C24.9804 35.3946 25.2348 35.5 25.5 35.5H34.5C34.7652 35.5 35.0196 35.3946 35.2071 35.2071C35.3946 35.0196 35.5 34.7652 35.5 34.5V26.5C35.5001 26.4343 35.4872 26.3693 35.4621 26.3086C35.437 26.2479 35.4002 26.1927 35.3538 26.1463ZM32 24.2069L33.7931 26H32V24.2069ZM34.5 34.5H25.5V23.5H31V26.5C31 26.6326 31.0527 26.7598 31.1464 26.8536C31.2402 26.9473 31.3674 27 31.5 27H34.5V34.5Z" fill="#32694B"/>
<path d="M60.9432 27.1477H59.1705C59.1023 26.7689 58.9754 26.4356 58.7898 26.1477C58.6042 25.8598 58.3769 25.6155 58.108 25.4148C57.839 25.214 57.5379 25.0625 57.2045 24.9602C56.875 24.858 56.5246 24.8068 56.1534 24.8068C55.483 24.8068 54.8826 24.9754 54.3523 25.3125C53.8258 25.6496 53.4091 26.1439 53.1023 26.7955C52.7992 27.447 52.6477 28.2424 52.6477 29.1818C52.6477 30.1288 52.7992 30.928 53.1023 31.5795C53.4091 32.2311 53.8277 32.7235 54.358 33.0568C54.8883 33.3902 55.4848 33.5568 56.1477 33.5568C56.5152 33.5568 56.8636 33.5076 57.1932 33.4091C57.5265 33.3068 57.8277 33.1572 58.0966 32.9602C58.3655 32.7633 58.5928 32.5227 58.7784 32.2386C58.9678 31.9508 59.0985 31.6212 59.1705 31.25L60.9432 31.2557C60.8485 31.8277 60.6648 32.3542 60.392 32.8352C60.1231 33.3125 59.7765 33.7254 59.3523 34.0739C58.9318 34.4186 58.4508 34.6856 57.9091 34.875C57.3674 35.0644 56.7765 35.1591 56.1364 35.1591C55.1288 35.1591 54.2311 34.9205 53.4432 34.4432C52.6553 33.9621 52.0341 33.2746 51.5795 32.3807C51.1288 31.4867 50.9034 30.4205 50.9034 29.1818C50.9034 27.9394 51.1307 26.8731 51.5852 25.983C52.0398 25.089 52.661 24.4034 53.4489 23.9261C54.2367 23.4451 55.1326 23.2045 56.1364 23.2045C56.7538 23.2045 57.3295 23.2936 57.8636 23.4716C58.4015 23.6458 58.8845 23.9034 59.3125 24.2443C59.7405 24.5814 60.0947 24.9943 60.375 25.483C60.6553 25.9678 60.8447 26.5227 60.9432 27.1477ZM68.5161 31.3807V26.2727H70.2206V35H68.5502V33.4886H68.4593C68.2585 33.9545 67.9365 34.3428 67.4934 34.6534C67.054 34.9602 66.5066 35.1136 65.8513 35.1136C65.2907 35.1136 64.7945 34.9905 64.3627 34.7443C63.9346 34.4943 63.5975 34.125 63.3513 33.6364C63.1089 33.1477 62.9877 32.5436 62.9877 31.8239V26.2727H64.6865V31.6193C64.6865 32.214 64.8513 32.6875 65.1809 33.0398C65.5104 33.392 65.9384 33.5682 66.4649 33.5682C66.7831 33.5682 67.0994 33.4886 67.4138 33.3295C67.732 33.1705 67.9952 32.9299 68.2036 32.608C68.4157 32.286 68.5199 31.8769 68.5161 31.3807ZM72.5833 35V26.2727H74.2253V27.6591H74.3162C74.4753 27.1894 74.7556 26.8201 75.1572 26.5511C75.5625 26.2784 76.0208 26.142 76.5322 26.142C76.6382 26.142 76.7632 26.1458 76.9072 26.1534C77.0549 26.161 77.1704 26.1705 77.2537 26.1818V27.8068C77.1856 27.7879 77.0644 27.767 76.8901 27.7443C76.7159 27.7178 76.5416 27.7045 76.3674 27.7045C75.9659 27.7045 75.6079 27.7898 75.2935 27.9602C74.9829 28.1269 74.7367 28.3598 74.5549 28.6591C74.3731 28.9545 74.2822 29.2917 74.2822 29.6705V35H72.5833ZM78.8039 35V26.2727H80.446V27.6591H80.5369C80.696 27.1894 80.9763 26.8201 81.3778 26.5511C81.7831 26.2784 82.2414 26.142 82.7528 26.142C82.8588 26.142 82.9838 26.1458 83.1278 26.1534C83.2755 26.161 83.391 26.1705 83.4744 26.1818V27.8068C83.4062 27.7879 83.285 27.767 83.1107 27.7443C82.9365 27.7178 82.7623 27.7045 82.588 27.7045C82.1865 27.7045 81.8285 27.7898 81.5141 27.9602C81.2035 28.1269 80.9573 28.3598 80.7755 28.6591C80.5937 28.9545 80.5028 29.2917 80.5028 29.6705V35H78.8039ZM85.0245 35V26.2727H86.7234V35H85.0245ZM85.8825 24.9261C85.587 24.9261 85.3333 24.8277 85.1211 24.6307C84.9128 24.4299 84.8086 24.1913 84.8086 23.9148C84.8086 23.6345 84.9128 23.3958 85.1211 23.1989C85.3333 22.9981 85.587 22.8977 85.8825 22.8977C86.178 22.8977 86.4298 22.9981 86.6382 23.1989C86.8503 23.3958 86.9564 23.6345 86.9564 23.9148C86.9564 24.1913 86.8503 24.4299 86.6382 24.6307C86.4298 24.8277 86.178 24.9261 85.8825 24.9261ZM92.7651 35.1761C91.9204 35.1761 91.1931 34.9848 90.5832 34.6023C89.9772 34.2159 89.5113 33.6837 89.1855 33.0057C88.8598 32.3277 88.6969 31.5511 88.6969 30.6761C88.6969 29.7898 88.8635 29.0076 89.1969 28.3295C89.5302 27.6477 89.9999 27.1155 90.606 26.733C91.212 26.3504 91.926 26.1591 92.748 26.1591C93.4109 26.1591 94.0018 26.2822 94.5207 26.5284C95.0397 26.7708 95.4582 27.1117 95.7764 27.5511C96.0984 27.9905 96.2897 28.5038 96.3503 29.0909H94.6969C94.606 28.6818 94.3976 28.3295 94.0719 28.0341C93.7499 27.7386 93.3181 27.5909 92.7764 27.5909C92.3029 27.5909 91.8882 27.7159 91.5321 27.9659C91.1798 28.2121 90.9052 28.5644 90.7082 29.0227C90.5113 29.4773 90.4128 30.0152 90.4128 30.6364C90.4128 31.2727 90.5094 31.822 90.7026 32.2841C90.8957 32.7462 91.1685 33.1042 91.5207 33.358C91.8768 33.6117 92.2954 33.7386 92.7764 33.7386C93.0984 33.7386 93.3901 33.6799 93.6514 33.5625C93.9166 33.4413 94.1382 33.2689 94.3162 33.0455C94.498 32.822 94.6249 32.553 94.6969 32.2386H96.3503C96.2897 32.803 96.106 33.3068 95.7991 33.75C95.4923 34.1932 95.0813 34.5417 94.5662 34.7955C94.0548 35.0492 93.4545 35.1761 92.7651 35.1761ZM103.775 31.3807V26.2727H105.48V35H103.81V33.4886H103.719C103.518 33.9545 103.196 34.3428 102.753 34.6534C102.313 34.9602 101.766 35.1136 101.111 35.1136C100.55 35.1136 100.054 34.9905 99.622 34.7443C99.194 34.4943 98.8569 34.125 98.6107 33.6364C98.3683 33.1477 98.247 32.5436 98.247 31.8239V26.2727H99.9459V31.6193C99.9459 32.214 100.111 32.6875 100.44 33.0398C100.77 33.392 101.198 33.5682 101.724 33.5682C102.042 33.5682 102.359 33.4886 102.673 33.3295C102.991 33.1705 103.255 32.9299 103.463 32.608C103.675 32.286 103.779 31.8769 103.775 31.3807ZM109.542 23.3636V35H107.843V23.3636H109.542ZM117.435 31.3807V26.2727H119.14V35H117.47V33.4886H117.379C117.178 33.9545 116.856 34.3428 116.413 34.6534C115.973 34.9602 115.426 35.1136 114.771 35.1136C114.21 35.1136 113.714 34.9905 113.282 34.7443C112.854 34.4943 112.517 34.125 112.271 33.6364C112.028 33.1477 111.907 32.5436 111.907 31.8239V26.2727H113.606V31.6193C113.606 32.214 113.771 32.6875 114.1 33.0398C114.43 33.392 114.858 33.5682 115.384 33.5682C115.702 33.5682 116.019 33.4886 116.333 33.3295C116.651 33.1705 116.915 32.9299 117.123 32.608C117.335 32.286 117.439 31.8769 117.435 31.3807ZM121.503 35V26.2727H123.133V27.6932H123.241C123.423 27.2121 123.72 26.8371 124.133 26.5682C124.546 26.2955 125.041 26.1591 125.616 26.1591C126.2 26.1591 126.688 26.2955 127.082 26.5682C127.48 26.8409 127.774 27.2159 127.963 27.6932H128.054C128.262 27.2273 128.594 26.8561 129.048 26.5795C129.503 26.2992 130.044 26.1591 130.673 26.1591C131.465 26.1591 132.111 26.4072 132.611 26.9034C133.114 27.3996 133.366 28.1477 133.366 29.1477V35H131.667V29.3068C131.667 28.7159 131.506 28.2879 131.184 28.0227C130.863 27.7576 130.478 27.625 130.031 27.625C129.478 27.625 129.048 27.7955 128.741 28.1364C128.434 28.4735 128.281 28.9072 128.281 29.4375V35H126.588V29.1989C126.588 28.7254 126.44 28.3447 126.145 28.0568C125.849 27.7689 125.465 27.625 124.991 27.625C124.669 27.625 124.372 27.7102 124.099 27.8807C123.83 28.0473 123.613 28.2803 123.446 28.5795C123.283 28.8788 123.202 29.2254 123.202 29.6193V35H121.503ZM141.191 23.3636L144.43 32.8409H144.56L147.799 23.3636H149.697L145.509 35H143.481L139.293 23.3636H141.191ZM151.321 35V26.2727H153.02V35H151.321ZM152.179 24.9261C151.883 24.9261 151.63 24.8277 151.417 24.6307C151.209 24.4299 151.105 24.1913 151.105 23.9148C151.105 23.6345 151.209 23.3958 151.417 23.1989C151.63 22.9981 151.883 22.8977 152.179 22.8977C152.474 22.8977 152.726 22.9981 152.934 23.1989C153.147 23.3958 153.253 23.6345 153.253 23.9148C153.253 24.1913 153.147 24.4299 152.934 24.6307C152.726 24.8277 152.474 24.9261 152.179 24.9261ZM159.459 26.2727V27.6364H154.692V26.2727H159.459ZM155.97 24.1818H157.669V32.4375C157.669 32.767 157.719 33.0152 157.817 33.1818C157.915 33.3447 158.042 33.4564 158.198 33.517C158.357 33.5739 158.529 33.6023 158.715 33.6023C158.851 33.6023 158.97 33.5928 159.073 33.5739C159.175 33.5549 159.254 33.5398 159.311 33.5284L159.618 34.9318C159.52 34.9697 159.379 35.0076 159.198 35.0455C159.016 35.0871 158.789 35.1098 158.516 35.1136C158.069 35.1212 157.652 35.0417 157.266 34.875C156.879 34.7083 156.567 34.4508 156.328 34.1023C156.09 33.7538 155.97 33.3163 155.97 32.7898V24.1818ZM163.958 35.1932C163.405 35.1932 162.905 35.0909 162.458 34.8864C162.011 34.678 161.657 34.3769 161.396 33.983C161.138 33.589 161.009 33.1061 161.009 32.5341C161.009 32.0417 161.104 31.6364 161.293 31.3182C161.483 31 161.738 30.7481 162.06 30.5625C162.382 30.3769 162.742 30.2367 163.14 30.142C163.538 30.0473 163.943 29.9754 164.356 29.9261C164.879 29.8655 165.303 29.8163 165.629 29.7784C165.954 29.7367 166.191 29.6705 166.339 29.5795C166.486 29.4886 166.56 29.3409 166.56 29.1364V29.0966C166.56 28.6004 166.42 28.2159 166.14 27.9432C165.863 27.6705 165.45 27.5341 164.901 27.5341C164.329 27.5341 163.879 27.661 163.549 27.9148C163.223 28.1648 162.998 28.4432 162.873 28.75L161.276 28.3864C161.466 27.8561 161.742 27.428 162.106 27.1023C162.473 26.7727 162.896 26.5341 163.373 26.3864C163.85 26.2348 164.352 26.1591 164.879 26.1591C165.227 26.1591 165.596 26.2008 165.986 26.2841C166.38 26.3636 166.748 26.5114 167.089 26.7273C167.433 26.9432 167.716 27.2519 167.935 27.6534C168.155 28.0511 168.265 28.5682 168.265 29.2045V35H166.606V33.8068H166.538C166.428 34.0265 166.263 34.2424 166.043 34.4545C165.824 34.6667 165.541 34.8428 165.197 34.983C164.852 35.1231 164.439 35.1932 163.958 35.1932ZM164.327 33.8295C164.797 33.8295 165.199 33.7367 165.532 33.5511C165.869 33.3655 166.125 33.1231 166.299 32.8239C166.477 32.5208 166.566 32.197 166.566 31.8523V30.7273C166.505 30.7879 166.388 30.8447 166.214 30.8977C166.043 30.947 165.848 30.9905 165.629 31.0284C165.409 31.0625 165.195 31.0947 164.986 31.125C164.778 31.1515 164.604 31.1742 164.464 31.1932C164.134 31.2348 163.833 31.3049 163.56 31.4034C163.291 31.5019 163.075 31.6439 162.913 31.8295C162.754 32.0114 162.674 32.2538 162.674 32.5568C162.674 32.9773 162.829 33.2955 163.14 33.5114C163.45 33.7235 163.846 33.8295 164.327 33.8295ZM174.369 35.1761C173.509 35.1761 172.769 34.9924 172.147 34.625C171.53 34.2538 171.053 33.733 170.716 33.0625C170.382 32.3883 170.216 31.5985 170.216 30.6932C170.216 29.7992 170.382 29.0114 170.716 28.3295C171.053 27.6477 171.522 27.1155 172.125 26.733C172.731 26.3504 173.439 26.1591 174.25 26.1591C174.742 26.1591 175.219 26.2405 175.682 26.4034C176.144 26.5663 176.558 26.822 176.926 27.1705C177.293 27.5189 177.583 27.9716 177.795 28.5284C178.007 29.0814 178.113 29.7538 178.113 30.5455V31.1477H171.176V29.875H176.449C176.449 29.428 176.358 29.0322 176.176 28.6875C175.994 28.339 175.738 28.0644 175.409 27.8636C175.083 27.6629 174.7 27.5625 174.261 27.5625C173.784 27.5625 173.367 27.6799 173.011 27.9148C172.659 28.1458 172.386 28.4489 172.193 28.8239C172.004 29.1951 171.909 29.5985 171.909 30.0341V31.0284C171.909 31.6117 172.011 32.108 172.216 32.517C172.424 32.9261 172.714 33.2386 173.085 33.4545C173.456 33.6667 173.89 33.7727 174.386 33.7727C174.708 33.7727 175.002 33.7273 175.267 33.6364C175.532 33.5417 175.761 33.4015 175.954 33.2159C176.147 33.0303 176.295 32.8011 176.397 32.5284L178.005 32.8182C177.877 33.2917 177.646 33.7064 177.312 34.0625C176.983 34.4148 176.568 34.6894 176.068 34.8864C175.572 35.0795 175.005 35.1761 174.369 35.1761Z" fill="#171717"/>
<path d="M21.7841 69H18.9588V60.2727H21.8736C22.7287 60.2727 23.4631 60.4474 24.0767 60.7969C24.6903 61.1435 25.1605 61.642 25.4872 62.2926C25.8168 62.9403 25.9815 63.7173 25.9815 64.6236C25.9815 65.5327 25.8153 66.3139 25.483 66.9673C25.1534 67.6207 24.6761 68.1236 24.0511 68.4759C23.4261 68.8253 22.6705 69 21.7841 69ZM20.2756 67.8494H21.7116C22.3764 67.8494 22.929 67.7244 23.3693 67.4744C23.8097 67.2216 24.1392 66.8565 24.358 66.3793C24.5767 65.8991 24.6861 65.3139 24.6861 64.6236C24.6861 63.9389 24.5767 63.358 24.358 62.8807C24.142 62.4034 23.8196 62.0412 23.3906 61.794C22.9616 61.5469 22.429 61.4233 21.7926 61.4233H20.2756V67.8494ZM27.5767 69V62.4545H28.8508V69H27.5767ZM28.2202 61.4446C27.9986 61.4446 27.8082 61.3707 27.6491 61.223C27.4929 61.0724 27.4148 60.8935 27.4148 60.6861C27.4148 60.4759 27.4929 60.2969 27.6491 60.1491C27.8082 59.9986 27.9986 59.9233 28.2202 59.9233C28.4417 59.9233 28.6307 59.9986 28.7869 60.1491C28.946 60.2969 29.0256 60.4759 29.0256 60.6861C29.0256 60.8935 28.946 61.0724 28.7869 61.223C28.6307 61.3707 28.4417 61.4446 28.2202 61.4446ZM34.7713 66.2855V62.4545H36.0497V69H34.7968V67.8665H34.7287C34.5781 68.2159 34.3366 68.5071 34.0042 68.7401C33.6747 68.9702 33.2642 69.0852 32.7727 69.0852C32.3522 69.0852 31.9801 68.9929 31.6562 68.8082C31.3352 68.6207 31.0824 68.3438 30.8977 67.9773C30.7159 67.6108 30.625 67.1577 30.625 66.6179V62.4545H31.8991V66.4645C31.8991 66.9105 32.0227 67.2656 32.2699 67.5298C32.517 67.794 32.838 67.9261 33.2329 67.9261C33.4716 67.9261 33.7088 67.8665 33.9446 67.7472C34.1832 67.6278 34.3807 67.4474 34.5369 67.206C34.696 66.9645 34.7741 66.6577 34.7713 66.2855ZM39.0958 65.1136V69H37.8217V62.4545H39.0447V63.5199H39.1257C39.2762 63.1733 39.512 62.8949 39.8331 62.6847C40.1569 62.4744 40.5646 62.3693 41.0561 62.3693C41.5021 62.3693 41.8927 62.4631 42.2279 62.6506C42.5632 62.8352 42.8231 63.1108 43.0078 63.4773C43.1924 63.8437 43.2848 64.2969 43.2848 64.8366V69H42.0106V64.9901C42.0106 64.5156 41.887 64.1449 41.6399 63.8778C41.3927 63.608 41.0532 63.473 40.6214 63.473C40.326 63.473 40.0632 63.5369 39.8331 63.6648C39.6058 63.7926 39.4254 63.9801 39.2919 64.2273C39.1612 64.4716 39.0958 64.767 39.0958 65.1136ZM47.7979 71.5909C47.278 71.5909 46.8306 71.5227 46.4556 71.3864C46.0834 71.25 45.7794 71.0696 45.5436 70.8452C45.3078 70.6207 45.1317 70.375 45.0152 70.108L46.1104 69.6562C46.1871 69.7812 46.2894 69.9134 46.4172 70.0526C46.5479 70.1946 46.724 70.3153 46.9456 70.4148C47.17 70.5142 47.4584 70.5639 47.8107 70.5639C48.2936 70.5639 48.6928 70.446 49.0081 70.2102C49.3235 69.9773 49.4811 69.6051 49.4811 69.0938V67.8068H49.4002C49.3235 67.946 49.2127 68.1009 49.0678 68.2713C48.9257 68.4418 48.7297 68.5895 48.4797 68.7145C48.2297 68.8395 47.9044 68.902 47.5038 68.902C46.9868 68.902 46.5209 68.7812 46.1061 68.5398C45.6942 68.2955 45.3675 67.9361 45.126 67.4616C44.8874 66.9844 44.7681 66.3977 44.7681 65.7017C44.7681 65.0057 44.886 64.4091 45.1217 63.9119C45.3604 63.4148 45.6871 63.0341 46.1019 62.7699C46.5166 62.5028 46.9868 62.3693 47.5124 62.3693C47.9186 62.3693 48.2467 62.4375 48.4967 62.5739C48.7467 62.7074 48.9413 62.8636 49.0806 63.0426C49.2226 63.2216 49.332 63.3793 49.4087 63.5156H49.5024V62.4545H50.751V69.1449C50.751 69.7074 50.6203 70.169 50.359 70.5298C50.0976 70.8906 49.7439 71.1577 49.2979 71.331C48.8547 71.5043 48.3547 71.5909 47.7979 71.5909ZM47.7851 67.8452C48.1516 67.8452 48.4612 67.7599 48.7141 67.5895C48.9698 67.4162 49.1629 67.169 49.2936 66.848C49.4271 66.5241 49.4939 66.1364 49.4939 65.6847C49.4939 65.2443 49.4286 64.8565 49.2979 64.5213C49.1672 64.1861 48.9754 63.9247 48.7226 63.7372C48.4698 63.5469 48.1573 63.4517 47.7851 63.4517C47.4016 63.4517 47.082 63.5511 46.8263 63.75C46.5706 63.946 46.3774 64.2131 46.2467 64.5511C46.1189 64.8892 46.055 65.267 46.055 65.6847C46.055 66.1136 46.1203 66.4901 46.251 66.8139C46.3817 67.1378 46.5749 67.3906 46.8306 67.5724C47.0891 67.7543 47.4073 67.8452 47.7851 67.8452ZM55.2641 71.5909C54.7442 71.5909 54.2968 71.5227 53.9218 71.3864C53.5496 71.25 53.2457 71.0696 53.0099 70.8452C52.7741 70.6207 52.5979 70.375 52.4815 70.108L53.5766 69.6562C53.6533 69.7812 53.7556 69.9134 53.8835 70.0526C54.0141 70.1946 54.1903 70.3153 54.4119 70.4148C54.6363 70.5142 54.9246 70.5639 55.2769 70.5639C55.7599 70.5639 56.159 70.446 56.4744 70.2102C56.7897 69.9773 56.9474 69.6051 56.9474 69.0938V67.8068H56.8664C56.7897 67.946 56.6789 68.1009 56.534 68.2713C56.392 68.4418 56.196 68.5895 55.946 68.7145C55.696 68.8395 55.3707 68.902 54.9701 68.902C54.4531 68.902 53.9871 68.7812 53.5724 68.5398C53.1604 68.2955 52.8337 67.9361 52.5923 67.4616C52.3536 66.9844 52.2343 66.3977 52.2343 65.7017C52.2343 65.0057 52.3522 64.4091 52.588 63.9119C52.8266 63.4148 53.1533 63.0341 53.5681 62.7699C53.9829 62.5028 54.4531 62.3693 54.9786 62.3693C55.3849 62.3693 55.713 62.4375 55.963 62.5739C56.213 62.7074 56.4076 62.8636 56.5468 63.0426C56.6888 63.2216 56.7982 63.3793 56.8749 63.5156H56.9687V62.4545H58.2173V69.1449C58.2173 69.7074 58.0866 70.169 57.8252 70.5298C57.5638 70.8906 57.2102 71.1577 56.7641 71.331C56.321 71.5043 55.821 71.5909 55.2641 71.5909ZM55.2513 67.8452C55.6178 67.8452 55.9275 67.7599 56.1803 67.5895C56.436 67.4162 56.6292 67.169 56.7599 66.848C56.8934 66.5241 56.9602 66.1364 56.9602 65.6847C56.9602 65.2443 56.8948 64.8565 56.7641 64.5213C56.6335 64.1861 56.4417 63.9247 56.1888 63.7372C55.936 63.5469 55.6235 63.4517 55.2513 63.4517C54.8678 63.4517 54.5482 63.5511 54.2925 63.75C54.0369 63.946 53.8437 64.2131 53.713 64.5511C53.5852 64.8892 53.5212 65.267 53.5212 65.6847C53.5212 66.1136 53.5866 66.4901 53.7173 66.8139C53.8479 67.1378 54.0411 67.3906 54.2968 67.5724C54.5553 67.7543 54.8735 67.8452 55.2513 67.8452ZM61.8909 69.1449C61.4761 69.1449 61.1011 69.0682 60.7659 68.9148C60.4307 68.7585 60.165 68.5327 59.969 68.2372C59.7758 67.9418 59.6792 67.5795 59.6792 67.1506C59.6792 66.7812 59.7503 66.4773 59.8923 66.2386C60.0344 66 60.2261 65.8111 60.4676 65.6719C60.7091 65.5327 60.979 65.4276 61.2773 65.3565C61.5756 65.2855 61.8795 65.2315 62.1892 65.1946C62.5812 65.1491 62.8994 65.1122 63.1437 65.0838C63.3881 65.0526 63.5656 65.0028 63.6764 64.9347C63.7872 64.8665 63.8426 64.7557 63.8426 64.6023V64.5724C63.8426 64.2003 63.7375 63.9119 63.5273 63.7074C63.3199 63.5028 63.0102 63.4006 62.5983 63.4006C62.1693 63.4006 61.8312 63.4957 61.5841 63.6861C61.3398 63.8736 61.1707 64.0824 61.077 64.3125L59.8795 64.0398C60.0216 63.642 60.229 63.321 60.5017 63.0767C60.7773 62.8295 61.094 62.6506 61.452 62.5398C61.8099 62.4261 62.1864 62.3693 62.5812 62.3693C62.8426 62.3693 63.1196 62.4006 63.4122 62.4631C63.7077 62.5227 63.9832 62.6335 64.2389 62.7955C64.4974 62.9574 64.7091 63.1889 64.8739 63.4901C65.0386 63.7884 65.121 64.1761 65.121 64.6534V69H63.8767V68.1051H63.8256C63.7432 68.2699 63.6196 68.4318 63.4548 68.5909C63.29 68.75 63.0784 68.8821 62.8199 68.9872C62.5613 69.0923 62.2517 69.1449 61.8909 69.1449ZM62.1679 68.1222C62.5202 68.1222 62.8213 68.0526 63.0713 67.9134C63.3241 67.7741 63.5159 67.5923 63.6466 67.3679C63.7801 67.1406 63.8469 66.8977 63.8469 66.6392V65.7955C63.8014 65.8409 63.7133 65.8835 63.5827 65.9233C63.4548 65.9602 63.3085 65.9929 63.1437 66.0213C62.979 66.0469 62.8185 66.071 62.6622 66.0938C62.506 66.1136 62.3753 66.1307 62.2702 66.1449C62.023 66.1761 61.7971 66.2287 61.5926 66.3026C61.3909 66.3764 61.229 66.483 61.1068 66.6222C60.9875 66.7585 60.9278 66.9403 60.9278 67.1676C60.9278 67.483 61.0443 67.7216 61.2773 67.8835C61.5102 68.0426 61.8071 68.1222 62.1679 68.1222ZM68.1522 65.1136V69H66.8781V60.2727H68.1352V63.5199H68.2162C68.3696 63.1676 68.6039 62.8878 68.9193 62.6804C69.2346 62.473 69.6466 62.3693 70.1551 62.3693C70.6039 62.3693 70.996 62.4616 71.3312 62.6463C71.6693 62.831 71.9307 63.1065 72.1153 63.473C72.3028 63.8366 72.3966 64.2912 72.3966 64.8366V69H71.1224V64.9901C71.1224 64.5099 70.9988 64.1378 70.7517 63.8736C70.5045 63.6065 70.1608 63.473 69.7204 63.473C69.4193 63.473 69.1494 63.5369 68.9108 63.6648C68.675 63.7926 68.4889 63.9801 68.3525 64.2273C68.219 64.4716 68.1522 64.767 68.1522 65.1136Z" fill="#171717"/>
<path d="M24.571 84.2727H25.892V90.0128C25.892 90.6236 25.7486 91.1648 25.4616 91.6364C25.1747 92.1051 24.7713 92.4744 24.2514 92.7443C23.7315 93.0114 23.1222 93.1449 22.4233 93.1449C21.7273 93.1449 21.1193 93.0114 20.5994 92.7443C20.0795 92.4744 19.6761 92.1051 19.3892 91.6364C19.1023 91.1648 18.9588 90.6236 18.9588 90.0128V84.2727H20.2756V89.9062C20.2756 90.3011 20.3622 90.652 20.5355 90.9588C20.7116 91.2656 20.9602 91.5071 21.2812 91.6832C21.6023 91.8565 21.983 91.9432 22.4233 91.9432C22.8665 91.9432 23.2486 91.8565 23.5696 91.6832C23.8935 91.5071 24.1406 91.2656 24.3111 90.9588C24.4844 90.652 24.571 90.3011 24.571 89.9062V84.2727ZM28.9361 90.7798L28.9275 89.2244H29.1491L31.7571 86.4545H33.2827L30.3082 89.608H30.1079L28.9361 90.7798ZM27.7642 93V84.2727H29.0383V93H27.7642ZM31.8977 93L29.554 89.8892L30.4318 88.9986L33.4616 93H31.8977ZM38.6502 90.2855V86.4545H39.9286V93H38.6758V91.8665H38.6076C38.457 92.2159 38.2155 92.5071 37.8831 92.7401C37.5536 92.9702 37.1431 93.0852 36.6516 93.0852C36.2312 93.0852 35.859 92.9929 35.5351 92.8082C35.2141 92.6207 34.9613 92.3438 34.7766 91.9773C34.5948 91.6108 34.5039 91.1577 34.5039 90.6179V86.4545H35.778V90.4645C35.778 90.9105 35.9016 91.2656 36.1488 91.5298C36.3959 91.794 36.7169 91.9261 37.1118 91.9261C37.3505 91.9261 37.5877 91.8665 37.8235 91.7472C38.0621 91.6278 38.2596 91.4474 38.4158 91.206C38.5749 90.9645 38.653 90.6577 38.6502 90.2855ZM41.7006 93V86.4545H42.9321V87.4943H43.0003C43.1196 87.142 43.3299 86.8651 43.631 86.6634C43.935 86.4588 44.2787 86.3565 44.6622 86.3565C44.7418 86.3565 44.8355 86.3594 44.9435 86.3651C45.0543 86.3707 45.1409 86.3778 45.2034 86.3864V87.6051C45.1523 87.5909 45.0614 87.5753 44.9307 87.5582C44.8 87.5384 44.6693 87.5284 44.5387 87.5284C44.2375 87.5284 43.9691 87.5923 43.7333 87.7202C43.5003 87.8452 43.3157 88.0199 43.1793 88.2443C43.0429 88.4659 42.9747 88.7187 42.9747 89.0028V93H41.7006ZM48.2123 93.1449C47.7975 93.1449 47.4225 93.0682 47.0873 92.9148C46.7521 92.7585 46.4864 92.5327 46.2904 92.2372C46.0972 91.9418 46.0007 91.5795 46.0007 91.1506C46.0007 90.7812 46.0717 90.4773 46.2137 90.2386C46.3558 90 46.5475 89.8111 46.789 89.6719C47.0305 89.5327 47.3004 89.4276 47.5987 89.3565C47.897 89.2855 48.2009 89.2315 48.5106 89.1946C48.9026 89.1491 49.2208 89.1122 49.4651 89.0838C49.7095 89.0526 49.887 89.0028 49.9978 88.9347C50.1086 88.8665 50.164 88.7557 50.164 88.6023V88.5724C50.164 88.2003 50.0589 87.9119 49.8487 87.7074C49.6413 87.5028 49.3316 87.4006 48.9197 87.4006C48.4907 87.4006 48.1526 87.4957 47.9055 87.6861C47.6612 87.8736 47.4921 88.0824 47.3984 88.3125L46.2009 88.0398C46.343 87.642 46.5504 87.321 46.8231 87.0767C47.0987 86.8295 47.4154 86.6506 47.7734 86.5398C48.1313 86.4261 48.5078 86.3693 48.9026 86.3693C49.164 86.3693 49.441 86.4006 49.7336 86.4631C50.0291 86.5227 50.3046 86.6335 50.5603 86.7955C50.8188 86.9574 51.0305 87.1889 51.1953 87.4901C51.36 87.7884 51.4424 88.1761 51.4424 88.6534V93H50.1981V92.1051H50.147C50.0646 92.2699 49.941 92.4318 49.7762 92.5909C49.6114 92.75 49.3998 92.8821 49.1413 92.9872C48.8828 93.0923 48.5731 93.1449 48.2123 93.1449ZM48.4893 92.1222C48.8416 92.1222 49.1427 92.0526 49.3927 91.9134C49.6455 91.7741 49.8373 91.5923 49.968 91.3679C50.1015 91.1406 50.1683 90.8977 50.1683 90.6392V89.7955C50.1228 89.8409 50.0347 89.8835 49.9041 89.9233C49.7762 89.9602 49.6299 89.9929 49.4651 90.0213C49.3004 90.0469 49.1399 90.071 48.9836 90.0938C48.8274 90.1136 48.6967 90.1307 48.5916 90.1449C48.3444 90.1761 48.1186 90.2287 47.914 90.3026C47.7123 90.3764 47.5504 90.483 47.4282 90.6222C47.3089 90.7585 47.2492 90.9403 47.2492 91.1676C47.2492 91.483 47.3657 91.7216 47.5987 91.8835C47.8316 92.0426 48.1285 92.1222 48.4893 92.1222ZM54.4736 89.1136V93H53.1995V86.4545H54.4225V87.5199H54.5035C54.654 87.1733 54.8898 86.8949 55.2109 86.6847C55.5347 86.4744 55.9424 86.3693 56.4339 86.3693C56.8799 86.3693 57.2705 86.4631 57.6058 86.6506C57.941 86.8352 58.2009 87.1108 58.3856 87.4773C58.5702 87.8437 58.6626 88.2969 58.6626 88.8366V93H57.3884V88.9901C57.3884 88.5156 57.2648 88.1449 57.0177 87.8778C56.7705 87.608 56.431 87.473 55.9992 87.473C55.7038 87.473 55.441 87.5369 55.2109 87.6648C54.9836 87.7926 54.8032 87.9801 54.6697 88.2273C54.539 88.4716 54.4736 88.767 54.4736 89.1136Z" fill="#171717"/>
<path d="M93.7202 69.1193C93.1861 69.1193 92.706 69.017 92.2798 68.8125C91.8565 68.6051 91.5185 68.321 91.2656 67.9602C91.0128 67.5994 90.8778 67.1875 90.8608 66.7244H92.1392C92.1705 67.0994 92.3366 67.4077 92.6378 67.6491C92.9389 67.8906 93.2997 68.0114 93.7202 68.0114C94.0554 68.0114 94.3523 67.9347 94.6108 67.7812C94.8722 67.625 95.0767 67.4105 95.2244 67.1378C95.375 66.8651 95.4503 66.554 95.4503 66.2045C95.4503 65.8494 95.3736 65.5327 95.2202 65.2543C95.0668 64.9759 94.8551 64.7571 94.5852 64.598C94.3182 64.4389 94.0114 64.358 93.6648 64.3551C93.4006 64.3551 93.1349 64.4006 92.8679 64.4915C92.6009 64.5824 92.3849 64.7017 92.2202 64.8494L91.0142 64.6705L91.5043 60.2727H96.3026V61.402H92.5994L92.3224 63.8438H92.3736C92.544 63.679 92.7699 63.5412 93.0511 63.4304C93.3352 63.3196 93.6392 63.2642 93.9631 63.2642C94.4943 63.2642 94.9673 63.3906 95.3821 63.6435C95.7997 63.8963 96.1278 64.2415 96.3665 64.679C96.608 65.1136 96.7273 65.6136 96.7244 66.179C96.7273 66.7443 96.5994 67.2486 96.3409 67.6918C96.0852 68.1349 95.7301 68.4844 95.2756 68.7401C94.8239 68.9929 94.3054 69.1193 93.7202 69.1193ZM101.696 60.2727H103.294L106.072 67.0568H106.175L108.953 60.2727H110.551V69H109.298V62.6847H109.217L106.643 68.9872H105.604L103.03 62.6804H102.949V69H101.696V60.2727ZM115.244 69.1321C114.599 69.1321 114.044 68.9943 113.578 68.7188C113.115 68.4403 112.757 68.0497 112.504 67.5469C112.254 67.0412 112.129 66.4489 112.129 65.7699C112.129 65.0994 112.254 64.5085 112.504 63.9972C112.757 63.4858 113.109 63.0866 113.561 62.7997C114.016 62.5128 114.547 62.3693 115.155 62.3693C115.524 62.3693 115.882 62.4304 116.229 62.5526C116.575 62.6747 116.886 62.8665 117.162 63.1278C117.437 63.3892 117.655 63.7287 117.814 64.1463C117.973 64.5611 118.053 65.0653 118.053 65.6591V66.1108H112.849V65.1562H116.804C116.804 64.821 116.736 64.5241 116.599 64.2656C116.463 64.0043 116.271 63.7983 116.024 63.6477C115.78 63.4972 115.493 63.4219 115.163 63.4219C114.805 63.4219 114.493 63.5099 114.226 63.6861C113.962 63.8594 113.757 64.0866 113.612 64.3679C113.47 64.6463 113.399 64.9489 113.399 65.2756V66.0213C113.399 66.4588 113.476 66.831 113.629 67.1378C113.785 67.4446 114.003 67.679 114.281 67.8409C114.56 68 114.885 68.0795 115.257 68.0795C115.499 68.0795 115.719 68.0455 115.918 67.9773C116.116 67.9062 116.288 67.8011 116.433 67.6619C116.578 67.5227 116.689 67.3509 116.766 67.1463L117.972 67.3636C117.875 67.7187 117.702 68.0298 117.452 68.2969C117.205 68.5611 116.893 68.767 116.518 68.9148C116.146 69.0597 115.722 69.1321 115.244 69.1321ZM119.526 69V62.4545H120.8V69H119.526ZM120.17 61.4446C119.948 61.4446 119.758 61.3707 119.599 61.223C119.442 61.0724 119.364 60.8935 119.364 60.6861C119.364 60.4759 119.442 60.2969 119.599 60.1491C119.758 59.9986 119.948 59.9233 120.17 59.9233C120.391 59.9233 120.58 59.9986 120.736 60.1491C120.896 60.2969 120.975 60.4759 120.975 60.6861C120.975 60.8935 120.896 61.0724 120.736 61.223C120.58 61.3707 120.391 61.4446 120.17 61.4446ZM125.793 69V68.0455L128.746 64.9858C129.062 64.6534 129.322 64.3622 129.526 64.1122C129.734 63.8594 129.888 63.6193 129.991 63.392C130.093 63.1648 130.144 62.9233 130.144 62.6676C130.144 62.3778 130.076 62.1278 129.94 61.9176C129.803 61.7045 129.617 61.5412 129.381 61.4276C129.146 61.3111 128.88 61.2528 128.584 61.2528C128.272 61.2528 127.999 61.3168 127.766 61.4446C127.533 61.5724 127.354 61.7528 127.229 61.9858C127.104 62.2187 127.042 62.4915 127.042 62.804H125.785C125.785 62.2727 125.907 61.8082 126.151 61.4105C126.396 61.0128 126.731 60.7045 127.157 60.4858C127.583 60.2642 128.067 60.1534 128.61 60.1534C129.158 60.1534 129.641 60.2628 130.059 60.4815C130.479 60.6974 130.807 60.9929 131.043 61.3679C131.279 61.7401 131.397 62.1605 131.397 62.6293C131.397 62.9531 131.336 63.2699 131.214 63.5795C131.094 63.8892 130.886 64.2344 130.587 64.6151C130.289 64.9929 129.874 65.4517 129.343 65.9915L127.609 67.8068V67.8707H131.538V69H125.793ZM136.251 69.1449C135.578 69.142 135.002 68.9645 134.525 68.6122C134.048 68.2599 133.683 67.7472 133.43 67.0739C133.177 66.4006 133.051 65.5895 133.051 64.6406C133.051 63.6946 133.177 62.8864 133.43 62.2159C133.686 61.5455 134.052 61.0341 134.529 60.6818C135.009 60.3295 135.583 60.1534 136.251 60.1534C136.919 60.1534 137.491 60.331 137.968 60.6861C138.446 61.0384 138.811 61.5497 139.063 62.2202C139.319 62.8878 139.447 63.6946 139.447 64.6406C139.447 65.5923 139.321 66.4048 139.068 67.0781C138.815 67.7486 138.45 68.2614 137.973 68.6165C137.495 68.9688 136.921 69.1449 136.251 69.1449ZM136.251 68.0071C136.842 68.0071 137.304 67.7188 137.636 67.142C137.971 66.5653 138.139 65.7315 138.139 64.6406C138.139 63.9162 138.062 63.304 137.909 62.804C137.758 62.3011 137.541 61.9205 137.257 61.6619C136.975 61.4006 136.64 61.2699 136.251 61.2699C135.663 61.2699 135.201 61.5597 134.866 62.1392C134.531 62.7187 134.362 63.5526 134.359 64.6406C134.359 65.3679 134.434 65.983 134.585 66.4858C134.738 66.9858 134.956 67.3651 135.237 67.6236C135.518 67.8793 135.856 68.0071 136.251 68.0071ZM141.019 69V68.0455L143.972 64.9858C144.287 64.6534 144.547 64.3622 144.752 64.1122C144.959 63.8594 145.114 63.6193 145.216 63.392C145.318 63.1648 145.37 62.9233 145.37 62.6676C145.37 62.3778 145.301 62.1278 145.165 61.9176C145.029 61.7045 144.843 61.5412 144.607 61.4276C144.371 61.3111 144.105 61.2528 143.81 61.2528C143.497 61.2528 143.225 61.3168 142.992 61.4446C142.759 61.5724 142.58 61.7528 142.455 61.9858C142.33 62.2187 142.267 62.4915 142.267 62.804H141.01C141.01 62.2727 141.132 61.8082 141.377 61.4105C141.621 61.0128 141.956 60.7045 142.382 60.4858C142.808 60.2642 143.293 60.1534 143.835 60.1534C144.384 60.1534 144.867 60.2628 145.284 60.4815C145.705 60.6974 146.033 60.9929 146.269 61.3679C146.505 61.7401 146.622 62.1605 146.622 62.6293C146.622 62.9531 146.561 63.2699 146.439 63.5795C146.32 63.8892 146.111 64.2344 145.813 64.6151C145.514 64.9929 145.1 65.4517 144.568 65.9915L142.834 67.8068V67.8707H146.763V69H141.019ZM151.319 69.1193C150.785 69.1193 150.305 69.017 149.878 68.8125C149.455 68.6051 149.117 68.321 148.864 67.9602C148.611 67.5994 148.476 67.1875 148.459 66.7244H149.738C149.769 67.0994 149.935 67.4077 150.236 67.6491C150.538 67.8906 150.898 68.0114 151.319 68.0114C151.654 68.0114 151.951 67.9347 152.209 67.7812C152.471 67.625 152.675 67.4105 152.823 67.1378C152.974 66.8651 153.049 66.554 153.049 66.2045C153.049 65.8494 152.972 65.5327 152.819 65.2543C152.665 64.9759 152.454 64.7571 152.184 64.598C151.917 64.4389 151.61 64.358 151.263 64.3551C150.999 64.3551 150.734 64.4006 150.466 64.4915C150.199 64.5824 149.984 64.7017 149.819 64.8494L148.613 64.6705L149.103 60.2727H153.901V61.402H150.198L149.921 63.8438H149.972C150.143 63.679 150.368 63.5412 150.65 63.4304C150.934 63.3196 151.238 63.2642 151.562 63.2642C152.093 63.2642 152.566 63.3906 152.981 63.6435C153.398 63.8963 153.726 64.2415 153.965 64.679C154.207 65.1136 154.326 65.6136 154.323 66.179C154.326 66.7443 154.198 67.2486 153.94 67.6918C153.684 68.1349 153.329 68.4844 152.874 68.7401C152.422 68.9929 151.904 69.1193 151.319 69.1193Z" fill="#A3A3A3"/>
<path d="M90.8395 93V92.0455L93.7926 88.9858C94.108 88.6534 94.3679 88.3622 94.5724 88.1122C94.7798 87.8594 94.9347 87.6193 95.0369 87.392C95.1392 87.1648 95.1903 86.9233 95.1903 86.6676C95.1903 86.3778 95.1222 86.1278 94.9858 85.9176C94.8494 85.7045 94.6634 85.5412 94.4276 85.4276C94.1918 85.3111 93.9261 85.2528 93.6307 85.2528C93.3182 85.2528 93.0455 85.3168 92.8125 85.4446C92.5795 85.5724 92.4006 85.7528 92.2756 85.9858C92.1506 86.2187 92.0881 86.4915 92.0881 86.804H90.831C90.831 86.2727 90.9531 85.8082 91.1974 85.4105C91.4418 85.0128 91.777 84.7045 92.2031 84.4858C92.6293 84.2642 93.1136 84.1534 93.6562 84.1534C94.2045 84.1534 94.6875 84.2628 95.1051 84.4815C95.5256 84.6974 95.8537 84.9929 96.0895 85.3679C96.3253 85.7401 96.4432 86.1605 96.4432 86.6293C96.4432 86.9531 96.3821 87.2699 96.2599 87.5795C96.1406 87.8892 95.9318 88.2344 95.6335 88.6151C95.3352 88.9929 94.9205 89.4517 94.3892 89.9915L92.6548 91.8068V91.8707H96.5838V93H90.8395ZM101.297 93.1193C100.712 93.1193 100.189 93.0185 99.729 92.8168C99.2716 92.6151 98.9094 92.3352 98.6424 91.9773C98.3782 91.6165 98.2361 91.1989 98.2162 90.7244H99.5543C99.5714 90.983 99.658 91.2074 99.8143 91.3977C99.9734 91.5852 100.181 91.7301 100.436 91.8324C100.692 91.9347 100.976 91.9858 101.289 91.9858C101.632 91.9858 101.936 91.9261 102.201 91.8068C102.468 91.6875 102.676 91.5213 102.827 91.3082C102.978 91.0923 103.053 90.8438 103.053 90.5625C103.053 90.2699 102.978 90.0128 102.827 89.7912C102.679 89.5668 102.462 89.3906 102.175 89.2628C101.891 89.1349 101.547 89.071 101.144 89.071H100.407V87.9972H101.144C101.468 87.9972 101.752 87.9389 101.996 87.8224C102.243 87.706 102.436 87.544 102.576 87.3366C102.715 87.1264 102.784 86.8807 102.784 86.5994C102.784 86.3295 102.723 86.0952 102.601 85.8963C102.482 85.6946 102.311 85.5369 102.09 85.4233C101.871 85.3097 101.613 85.2528 101.314 85.2528C101.03 85.2528 100.765 85.3054 100.517 85.4105C100.273 85.5128 100.074 85.6605 99.9208 85.8537C99.7674 86.044 99.685 86.2727 99.6736 86.5398H98.3995C98.4137 86.0682 98.5529 85.6534 98.8171 85.2955C99.0841 84.9375 99.4364 84.6577 99.8739 84.456C100.311 84.2543 100.797 84.1534 101.331 84.1534C101.891 84.1534 102.374 84.2628 102.78 84.4815C103.189 84.6974 103.505 84.9858 103.726 85.3466C103.951 85.7074 104.061 86.1023 104.059 86.5312C104.061 87.0199 103.925 87.4347 103.649 87.7756C103.377 88.1165 103.013 88.3452 102.559 88.4616V88.5298C103.138 88.6179 103.587 88.848 103.905 89.2202C104.226 89.5923 104.385 90.054 104.382 90.6051C104.385 91.0852 104.252 91.5156 103.982 91.8963C103.715 92.277 103.35 92.5767 102.887 92.7955C102.424 93.0114 101.894 93.1193 101.297 93.1193ZM105.87 91.2955V90.2301L109.641 84.2727H110.481V85.8409H109.948L107.251 90.1108V90.179H112.42V91.2955H105.87ZM110.008 93V90.9716L110.016 90.4858V84.2727H111.265V93H110.008ZM117.32 93V84.2727H118.637V88.4403H118.743L122.404 84.2727H124.061L120.541 88.2017L124.074 93H122.489L119.668 89.1009L118.637 90.2855V93H117.32ZM125.349 93V84.2727H128.545C129.164 84.2727 129.677 84.375 130.083 84.5795C130.489 84.7812 130.793 85.0554 130.995 85.402C131.197 85.7457 131.298 86.1335 131.298 86.5653C131.298 86.929 131.231 87.2358 131.097 87.4858C130.964 87.733 130.785 87.9318 130.56 88.0824C130.339 88.2301 130.094 88.3381 129.827 88.4062V88.4915C130.117 88.5057 130.4 88.5994 130.675 88.7727C130.954 88.9432 131.184 89.1861 131.366 89.5014C131.548 89.8168 131.638 90.2003 131.638 90.652C131.638 91.098 131.533 91.4986 131.323 91.8537C131.116 92.206 130.795 92.4858 130.36 92.6932C129.925 92.8977 129.37 93 128.694 93H125.349ZM126.665 91.8707H128.566C129.197 91.8707 129.648 91.7486 129.921 91.5043C130.194 91.2599 130.33 90.9545 130.33 90.5881C130.33 90.3125 130.261 90.0597 130.121 89.8295C129.982 89.5994 129.783 89.4162 129.525 89.2798C129.269 89.1435 128.965 89.0753 128.613 89.0753H126.665V91.8707ZM126.665 88.0483H128.43C128.725 88.0483 128.991 87.9915 129.226 87.8778C129.465 87.7642 129.654 87.6051 129.793 87.4006C129.935 87.1932 130.006 86.9489 130.006 86.6676C130.006 86.3068 129.88 86.0043 129.627 85.7599C129.374 85.5156 128.986 85.3935 128.464 85.3935H126.665V88.0483Z" fill="#A3A3A3"/>
<path d="M26 113.5H186C190.142 113.5 193.5 116.858 193.5 121V143C193.5 147.142 190.142 150.5 186 150.5H26C21.8579 150.5 18.5 147.142 18.5 143V121C18.5 116.858 21.8579 113.5 26 113.5Z" stroke="#4C956C"/>
<path d="M41.1667 132C41.1667 132 42.9167 127.917 47 127.917C51.0833 127.917 52.8333 132 52.8333 132C52.8333 132 51.0833 136.083 47 136.083C42.9167 136.083 41.1667 132 41.1667 132Z" stroke="#4C956C" stroke-linecap="round" stroke-linejoin="round"/>
<path d="M47 133.75C47.9665 133.75 48.75 132.966 48.75 132C48.75 131.034 47.9665 130.25 47 130.25C46.0335 130.25 45.25 131.034 45.25 132C45.25 132.966 46.0335 133.75 47 133.75Z" stroke="#4C956C" stroke-linecap="round" stroke-linejoin="round"/>
<path d="M63.229 137V126.091H65.2052V135.343H70.0099V137H63.229ZM71.7149 137V128.818H73.6432V137H71.7149ZM72.6843 127.657C72.3789 127.657 72.1162 127.556 71.896 127.353C71.6758 127.147 71.5657 126.901 71.5657 126.613C71.5657 126.322 71.6758 126.075 71.896 125.873C72.1162 125.667 72.3789 125.564 72.6843 125.564C72.9933 125.564 73.2561 125.667 73.4727 125.873C73.6929 126.075 73.803 126.322 73.803 126.613C73.803 126.901 73.6929 127.147 73.4727 127.353C73.2561 127.556 72.9933 127.657 72.6843 127.657ZM77.6293 132.206V137H75.701V126.091H77.5867V130.208H77.6826C77.8743 129.747 78.1708 129.383 78.5721 129.116C78.9769 128.847 79.4919 128.712 80.1169 128.712C80.685 128.712 81.1804 128.831 81.603 129.069C82.0256 129.306 82.3523 129.654 82.5831 130.113C82.8175 130.571 82.9347 131.13 82.9347 131.79V137H81.0064V132.089C81.0064 131.538 80.8644 131.11 80.5803 130.805C80.2997 130.496 79.9056 130.342 79.3978 130.342C79.0568 130.342 78.7514 130.416 78.4816 130.565C78.2152 130.711 78.0057 130.922 77.853 131.199C77.7039 131.476 77.6293 131.812 77.6293 132.206ZM87.3296 137.165C86.8112 137.165 86.3442 137.073 85.9287 136.888C85.5168 136.7 85.1901 136.423 84.9486 136.057C84.7107 135.691 84.5917 135.24 84.5917 134.704C84.5917 134.243 84.6769 133.861 84.8474 133.559C85.0179 133.257 85.2505 133.016 85.5452 132.835C85.8399 132.653 86.172 132.517 86.5413 132.424C86.9142 132.328 87.2995 132.259 87.6972 132.217C88.1766 132.167 88.5654 132.123 88.8637 132.083C89.162 132.041 89.3786 131.977 89.5136 131.892C89.6521 131.803 89.7213 131.666 89.7213 131.482V131.45C89.7213 131.048 89.6024 130.738 89.3644 130.517C89.1265 130.297 88.7838 130.187 88.3364 130.187C87.8641 130.187 87.4894 130.29 87.2125 130.496C86.939 130.702 86.7544 130.945 86.6585 131.226L84.8581 130.97C85.0001 130.473 85.2345 130.058 85.5612 129.724C85.8879 129.386 86.2874 129.134 86.7597 128.967C87.232 128.797 87.754 128.712 88.3257 128.712C88.7199 128.712 89.1123 128.758 89.5029 128.85C89.8936 128.942 90.2505 129.095 90.5736 129.308C90.8968 129.518 91.156 129.804 91.3513 130.166C91.5502 130.528 91.6496 130.981 91.6496 131.524V137H89.7959V135.876H89.732C89.6148 136.103 89.4497 136.316 89.2366 136.515C89.0271 136.711 88.7625 136.869 88.4429 136.989C88.1269 137.107 87.7558 137.165 87.3296 137.165ZM87.8304 135.748C88.2174 135.748 88.553 135.672 88.8371 135.519C89.1212 135.363 89.3396 135.157 89.4923 134.901C89.6485 134.646 89.7267 134.367 89.7267 134.065V133.101C89.6663 133.151 89.5633 133.197 89.4177 133.239C89.2757 133.282 89.1159 133.319 88.9383 133.351C88.7608 133.383 88.585 133.412 88.411 133.436C88.237 133.461 88.086 133.483 87.9582 133.5C87.6706 133.539 87.4131 133.603 87.1858 133.692C86.9585 133.781 86.7792 133.905 86.6478 134.065C86.5164 134.221 86.4507 134.424 86.4507 134.672C86.4507 135.027 86.5804 135.295 86.8396 135.477C87.0988 135.658 87.4291 135.748 87.8304 135.748ZM97.7491 128.818V130.31H93.0456V128.818H97.7491ZM94.2068 126.858H96.1351V134.539C96.1351 134.798 96.1742 134.997 96.2523 135.136C96.334 135.271 96.4405 135.363 96.5719 135.413C96.7033 135.462 96.8489 135.487 97.0087 135.487C97.1294 135.487 97.2395 135.478 97.3389 135.461C97.4419 135.443 97.5201 135.427 97.5733 135.413L97.8982 136.92C97.7953 136.956 97.6479 136.995 97.4561 137.037C97.2679 137.08 97.0371 137.105 96.7637 137.112C96.2807 137.126 95.8457 137.053 95.4586 136.893C95.0715 136.73 94.7644 136.478 94.5371 136.137C94.3134 135.796 94.2033 135.37 94.2068 134.859V126.858ZM107.014 137H103.318V126.091H107.089C108.172 126.091 109.102 126.309 109.88 126.746C110.661 127.179 111.262 127.803 111.681 128.616C112.1 129.429 112.309 130.402 112.309 131.535C112.309 132.671 112.098 133.648 111.675 134.464C111.256 135.281 110.651 135.908 109.859 136.345C109.071 136.782 108.122 137 107.014 137ZM105.294 135.29H106.919C107.678 135.29 108.312 135.152 108.82 134.875C109.328 134.594 109.71 134.177 109.965 133.623C110.221 133.065 110.349 132.369 110.349 131.535C110.349 130.7 110.221 130.008 109.965 129.457C109.71 128.903 109.332 128.49 108.831 128.216C108.334 127.939 107.716 127.801 106.977 127.801H105.294V135.29ZM117.745 137.16C116.946 137.16 116.254 136.984 115.668 136.632C115.082 136.281 114.628 135.789 114.304 135.157C113.985 134.525 113.825 133.786 113.825 132.941C113.825 132.096 113.985 131.355 114.304 130.72C114.628 130.084 115.082 129.591 115.668 129.239C116.254 128.887 116.946 128.712 117.745 128.712C118.545 128.712 119.237 128.887 119.823 129.239C120.409 129.591 120.862 130.084 121.181 130.72C121.504 131.355 121.666 132.096 121.666 132.941C121.666 133.786 121.504 134.525 121.181 135.157C120.862 135.789 120.409 136.281 119.823 136.632C119.237 136.984 118.545 137.16 117.745 137.16ZM117.756 135.615C118.189 135.615 118.552 135.496 118.843 135.258C119.134 135.017 119.351 134.694 119.493 134.289C119.638 133.884 119.711 133.433 119.711 132.936C119.711 132.435 119.638 131.982 119.493 131.577C119.351 131.169 119.134 130.844 118.843 130.603C118.552 130.361 118.189 130.24 117.756 130.24C117.312 130.24 116.943 130.361 116.648 130.603C116.357 130.844 116.139 131.169 115.993 131.577C115.851 131.982 115.78 132.435 115.78 132.936C115.78 133.433 115.851 133.884 115.993 134.289C116.139 134.694 116.357 135.017 116.648 135.258C116.943 135.496 117.312 135.615 117.756 135.615ZM125.135 134.433L125.13 132.105H125.439L128.379 128.818H130.633L127.016 132.845H126.616L125.135 134.433ZM123.378 137V126.091H125.306V137H123.378ZM128.513 137L125.849 133.277L127.149 131.918L130.819 137H128.513ZM137.207 133.559V128.818H139.136V137H137.266V135.546H137.181C136.996 136.004 136.693 136.379 136.27 136.67C135.851 136.961 135.334 137.107 134.72 137.107C134.184 137.107 133.71 136.988 133.298 136.75C132.889 136.508 132.57 136.158 132.339 135.7C132.108 135.239 131.993 134.681 131.993 134.028V128.818H133.921V133.729C133.921 134.248 134.063 134.66 134.347 134.965C134.631 135.271 135.004 135.423 135.466 135.423C135.75 135.423 136.025 135.354 136.291 135.216C136.558 135.077 136.776 134.871 136.946 134.598C137.12 134.321 137.207 133.974 137.207 133.559ZM141.194 137V128.818H143.037V130.208H143.133C143.303 129.74 143.585 129.374 143.979 129.111C144.374 128.845 144.844 128.712 145.391 128.712C145.945 128.712 146.412 128.847 146.792 129.116C147.175 129.383 147.445 129.747 147.602 130.208H147.687C147.868 129.754 148.173 129.392 148.603 129.122C149.036 128.848 149.549 128.712 150.142 128.712C150.895 128.712 151.51 128.95 151.986 129.425C152.461 129.901 152.699 130.596 152.699 131.508V137H150.766V131.806C150.766 131.299 150.631 130.928 150.361 130.693C150.091 130.455 149.761 130.336 149.37 130.336C148.905 130.336 148.541 130.482 148.278 130.773C148.019 131.061 147.889 131.435 147.889 131.897V137H145.998V131.727C145.998 131.304 145.87 130.967 145.615 130.714C145.363 130.462 145.032 130.336 144.624 130.336C144.347 130.336 144.095 130.407 143.868 130.549C143.64 130.688 143.459 130.885 143.324 131.141C143.189 131.393 143.122 131.687 143.122 132.025V137H141.194ZM158.353 137.16C157.532 137.16 156.824 136.989 156.227 136.648C155.634 136.304 155.178 135.817 154.858 135.189C154.539 134.557 154.379 133.813 154.379 132.957C154.379 132.115 154.539 131.377 154.858 130.741C155.182 130.102 155.633 129.605 156.211 129.25C156.79 128.891 157.47 128.712 158.251 128.712C158.756 128.712 159.232 128.793 159.679 128.957C160.13 129.116 160.528 129.365 160.872 129.702C161.22 130.04 161.494 130.469 161.693 130.991C161.891 131.51 161.991 132.128 161.991 132.845V133.436H155.284V132.137H160.142C160.139 131.767 160.059 131.439 159.903 131.151C159.746 130.86 159.528 130.631 159.248 130.464C158.971 130.297 158.647 130.214 158.278 130.214C157.884 130.214 157.538 130.31 157.239 130.501C156.941 130.69 156.708 130.938 156.542 131.247C156.378 131.553 156.295 131.888 156.291 132.254V133.388C156.291 133.864 156.378 134.273 156.552 134.614C156.726 134.951 156.97 135.21 157.282 135.391C157.595 135.569 157.96 135.658 158.379 135.658C158.66 135.658 158.914 135.619 159.141 135.54C159.368 135.459 159.565 135.34 159.732 135.184C159.899 135.027 160.025 134.834 160.11 134.603L161.911 134.805C161.797 135.281 161.581 135.697 161.261 136.052C160.945 136.403 160.54 136.677 160.047 136.872C159.553 137.064 158.988 137.16 158.353 137.16ZM165.625 132.206V137H163.697V128.818H165.54V130.208H165.636C165.824 129.75 166.124 129.386 166.536 129.116C166.952 128.847 167.465 128.712 168.076 128.712C168.64 128.712 169.132 128.832 169.551 129.074C169.974 129.315 170.3 129.665 170.531 130.123C170.766 130.581 170.881 131.137 170.878 131.79V137H168.949V132.089C168.949 131.542 168.807 131.114 168.523 130.805C168.243 130.496 167.854 130.342 167.357 130.342C167.019 130.342 166.719 130.416 166.456 130.565C166.197 130.711 165.993 130.922 165.844 131.199C165.698 131.476 165.625 131.812 165.625 132.206Z" fill="#4C956C"/>
</g>
<defs>
<filter id="filter0_d_939_22732" x="0" y="0" width="212" height="170" filterUnits="userSpaceOnUse" color-interpolation-filters="sRGB">
<feFlood flood-opacity="0" result="BackgroundImageFix"/>
<feColorMatrix in="SourceAlpha" type="matrix" values="0 0 0 0 0 0 0 0 0 0 0 0 0 0 0 0 0 0 127 0" result="hardAlpha"/>
<feOffset dy="1"/>
<feGaussianBlur stdDeviation="1"/>
<feComposite in2="hardAlpha" operator="out"/>
<feColorMatrix type="matrix" values="0 0 0 0 0 0 0 0 0 0 0 0 0 0 0 0 0 0 0.05 0"/>
<feBlend mode="normal" in2="BackgroundImageFix" result="effect1_dropShadow_939_22732"/>
<feBlend mode="normal" in="SourceGraphic" in2="effect1_dropShadow_939_22732" result="shape"/>
</filter>
</defs>
</svg>
