<svg width="568" height="384" viewBox="0 0 568 384" fill="none" xmlns="http://www.w3.org/2000/svg">
<rect width="568" height="384" rx="8" fill="white"/>
<path d="M17.598 45V30.4545H19.7926V37.4006H19.9702L26.071 30.4545H28.8338L22.9673 37.0028L28.8551 45H26.2131L21.5114 38.5014L19.7926 40.4759V45H17.598ZM34.7097 45.2202C33.6349 45.2202 32.7093 44.9905 31.9327 44.5312C31.161 44.0672 30.5644 43.4162 30.143 42.5781C29.7263 41.7353 29.518 40.7481 29.518 39.6165C29.518 38.4991 29.7263 37.5142 30.143 36.6619C30.5644 35.8097 31.1515 35.1444 31.9043 34.6662C32.6619 34.188 33.5473 33.9489 34.5606 33.9489C35.1761 33.9489 35.7727 34.0507 36.3504 34.2543C36.928 34.4579 37.4465 34.7775 37.9058 35.2131C38.365 35.6487 38.7272 36.2145 38.9924 36.9105C39.2576 37.6018 39.3901 38.4422 39.3901 39.4318V40.1847H30.7183V38.5938H37.3092C37.3092 38.035 37.1955 37.5402 36.9683 37.1094C36.741 36.6738 36.4214 36.3305 36.0094 36.0795C35.6022 35.8286 35.124 35.7031 34.5748 35.7031C33.9782 35.7031 33.4574 35.8499 33.0123 36.1435C32.5719 36.4323 32.231 36.8111 31.9896 37.2798C31.7528 37.7438 31.6344 38.2481 31.6344 38.7926V40.0355C31.6344 40.7647 31.7623 41.3849 32.018 41.8963C32.2784 42.4077 32.6406 42.7983 33.1046 43.0682C33.5686 43.3333 34.1108 43.4659 34.731 43.4659C35.1335 43.4659 35.5005 43.4091 35.8319 43.2955C36.1633 43.1771 36.4498 43.0019 36.6913 42.7699C36.9327 42.5379 37.1174 42.2514 37.2452 41.9105L39.2552 42.2727C39.0942 42.8646 38.8054 43.383 38.3887 43.8281C37.9768 44.2685 37.4583 44.6117 36.8333 44.858C36.213 45.0994 35.5052 45.2202 34.7097 45.2202ZM41.8463 49.0909V34.0909H43.9202V35.8594H44.0977C44.2208 35.6321 44.3984 35.3693 44.6304 35.071C44.8624 34.7727 45.1844 34.5123 45.5963 34.2898C46.0082 34.0625 46.5527 33.9489 47.2298 33.9489C48.1105 33.9489 48.8965 34.1714 49.5878 34.6165C50.2791 35.0616 50.8212 35.7031 51.2142 36.5412C51.6119 37.3793 51.8108 38.3878 51.8108 39.5668C51.8108 40.7457 51.6143 41.7566 51.2213 42.5994C50.8283 43.4375 50.2885 44.0838 49.602 44.5384C48.9154 44.9882 48.1318 45.2131 47.2511 45.2131C46.5883 45.2131 46.0461 45.1018 45.6247 44.8793C45.2081 44.6567 44.8813 44.3963 44.6446 44.098C44.4079 43.7997 44.2256 43.5346 44.0977 43.3026H43.9699V49.0909H41.8463ZM43.9273 39.5455C43.9273 40.3125 44.0385 40.9848 44.2611 41.5625C44.4836 42.1402 44.8056 42.5923 45.227 42.919C45.6484 43.241 46.1645 43.402 46.7753 43.402C47.4098 43.402 47.9401 43.2339 48.3662 42.8977C48.7923 42.5568 49.1143 42.0952 49.3321 41.5128C49.5546 40.9304 49.6659 40.2746 49.6659 39.5455C49.6659 38.8258 49.557 38.1795 49.3392 37.6065C49.1261 37.0336 48.8042 36.5814 48.3733 36.25C47.9472 35.9186 47.4145 35.7528 46.7753 35.7528C46.1598 35.7528 45.6389 35.9115 45.2128 36.2287C44.7914 36.5459 44.4718 36.9886 44.254 37.5568C44.0362 38.125 43.9273 38.7879 43.9273 39.5455ZM61.2006 40.4759V34.0909H63.3312V45H61.2432V43.1108H61.1295C60.8786 43.6932 60.4761 44.1785 59.9222 44.5668C59.3729 44.9503 58.6887 45.142 57.8696 45.142C57.1688 45.142 56.5486 44.9882 56.0088 44.6804C55.4738 44.3679 55.0524 43.9062 54.7446 43.2955C54.4416 42.6847 54.2901 41.9295 54.2901 41.0298V34.0909H56.4136V40.7741C56.4136 41.5175 56.6196 42.1094 57.0315 42.5497C57.4435 42.9901 57.9785 43.2102 58.6366 43.2102C59.0344 43.2102 59.4297 43.1108 59.8227 42.9119C60.2205 42.7131 60.5495 42.4124 60.8099 42.0099C61.0751 41.6075 61.2053 41.0961 61.2006 40.4759ZM69.4593 45.2415C68.768 45.2415 68.143 45.1136 67.5843 44.858C67.0256 44.5975 66.5829 44.2211 66.2562 43.7287C65.9342 43.2363 65.7732 42.6326 65.7732 41.9176C65.7732 41.3021 65.8916 40.7955 66.1283 40.3977C66.3651 40 66.6847 39.6851 67.0871 39.4531C67.4896 39.2211 67.9394 39.0459 68.4366 38.9276C68.9337 38.8092 69.4404 38.7192 69.9565 38.6577C70.6099 38.5819 71.1402 38.5204 71.5474 38.473C71.9546 38.4209 72.2505 38.3381 72.4352 38.2244C72.6198 38.1108 72.7121 37.9261 72.7121 37.6705V37.6207C72.7121 37.0005 72.537 36.5199 72.1866 36.179C71.8409 35.8381 71.3248 35.6676 70.6383 35.6676C69.9233 35.6676 69.3599 35.8262 68.9479 36.1435C68.5407 36.456 68.259 36.804 68.1028 37.1875L66.107 36.733C66.3438 36.0701 66.6894 35.535 67.144 35.1278C67.6032 34.7159 68.1312 34.4176 68.7278 34.233C69.3244 34.0436 69.9517 33.9489 70.6099 33.9489C71.0455 33.9489 71.5071 34.0009 71.9948 34.1051C72.4872 34.2045 72.9465 34.3892 73.3727 34.6591C73.8035 34.929 74.1563 35.3149 74.4309 35.8168C74.7055 36.3139 74.8428 36.9602 74.8428 37.7557V45H72.769V43.5085H72.6837C72.5464 43.7831 72.3405 44.053 72.0658 44.3182C71.7912 44.5833 71.4385 44.8035 71.0076 44.9787C70.5767 45.1539 70.0606 45.2415 69.4593 45.2415ZM69.921 43.5369C70.5081 43.5369 71.01 43.4209 71.4266 43.1889C71.848 42.9569 72.1676 42.6539 72.3854 42.2798C72.608 41.901 72.7192 41.4962 72.7192 41.0653V39.6591C72.6435 39.7348 72.4967 39.8059 72.2789 39.8722C72.0658 39.9337 71.822 39.9882 71.5474 40.0355C71.2728 40.0781 71.0052 40.1184 70.7448 40.1562C70.4844 40.1894 70.2666 40.2178 70.0914 40.2415C69.6795 40.2936 69.3031 40.3812 68.9621 40.5043C68.626 40.6274 68.3561 40.8049 68.1525 41.0369C67.9536 41.2642 67.8542 41.5672 67.8542 41.946C67.8542 42.4716 68.0483 42.8693 68.4366 43.1392C68.8248 43.4044 69.3196 43.5369 69.921 43.5369ZM85.946 36.7543L84.0213 37.0952C83.9408 36.849 83.813 36.6146 83.6378 36.392C83.4673 36.1695 83.2353 35.9872 82.9418 35.8452C82.6482 35.7031 82.2813 35.6321 81.8409 35.6321C81.2396 35.6321 80.7377 35.767 80.3352 36.0369C79.9328 36.3021 79.7315 36.6454 79.7315 37.0668C79.7315 37.4313 79.8665 37.7249 80.1364 37.9474C80.4063 38.17 80.8419 38.3523 81.4432 38.4943L83.1761 38.892C84.1799 39.1241 84.928 39.4815 85.4205 39.9645C85.9129 40.4474 86.1591 41.0748 86.1591 41.8466C86.1591 42.5 85.9697 43.0824 85.5909 43.5938C85.2169 44.1004 84.6937 44.4981 84.0213 44.7869C83.3537 45.0758 82.5795 45.2202 81.6989 45.2202C80.4773 45.2202 79.4806 44.9598 78.7088 44.4389C77.937 43.9134 77.4635 43.1676 77.2884 42.2017L79.3409 41.8892C79.4688 42.4242 79.7315 42.8291 80.1293 43.1037C80.527 43.3736 81.0455 43.5085 81.6847 43.5085C82.3807 43.5085 82.937 43.3641 83.3537 43.0753C83.7704 42.7817 83.9787 42.4242 83.9787 42.0028C83.9787 41.6619 83.8509 41.3755 83.5952 41.1435C83.3442 40.9115 82.9583 40.7363 82.4375 40.6179L80.5909 40.2131C79.5729 39.9811 78.8201 39.6117 78.3324 39.1051C77.8494 38.5985 77.608 37.9569 77.608 37.1804C77.608 36.5365 77.7879 35.973 78.1477 35.4901C78.5076 35.0071 79.0047 34.6307 79.6392 34.3608C80.2737 34.0862 81.0005 33.9489 81.8196 33.9489C82.9986 33.9489 83.9266 34.2045 84.6037 34.7159C85.2808 35.2225 85.7282 35.902 85.946 36.7543ZM91.7687 45.2415C91.0774 45.2415 90.4524 45.1136 89.8937 44.858C89.335 44.5975 88.8923 44.2211 88.5656 43.7287C88.2436 43.2363 88.0826 42.6326 88.0826 41.9176C88.0826 41.3021 88.201 40.7955 88.4377 40.3977C88.6745 40 88.9941 39.6851 89.3965 39.4531C89.799 39.2211 90.2488 39.0459 90.746 38.9276C91.2431 38.8092 91.7497 38.7192 92.2658 38.6577C92.9192 38.5819 93.4495 38.5204 93.8567 38.473C94.2639 38.4209 94.5599 38.3381 94.7445 38.2244C94.9292 38.1108 95.0215 37.9261 95.0215 37.6705V37.6207C95.0215 37.0005 94.8463 36.5199 94.496 36.179C94.1503 35.8381 93.6342 35.6676 92.9477 35.6676C92.2327 35.6676 91.6692 35.8262 91.2573 36.1435C90.8501 36.456 90.5684 36.804 90.4121 37.1875L88.4164 36.733C88.6531 36.0701 88.9988 35.535 89.4533 35.1278C89.9126 34.7159 90.4406 34.4176 91.0371 34.233C91.6337 34.0436 92.2611 33.9489 92.9192 33.9489C93.3549 33.9489 93.8165 34.0009 94.3042 34.1051C94.7966 34.2045 95.2559 34.3892 95.682 34.6591C96.1129 34.929 96.4656 35.3149 96.7403 35.8168C97.0149 36.3139 97.1522 36.9602 97.1522 37.7557V45H95.0783V43.5085H94.9931C94.8558 43.7831 94.6498 44.053 94.3752 44.3182C94.1006 44.5833 93.7478 44.8035 93.317 44.9787C92.8861 45.1539 92.37 45.2415 91.7687 45.2415ZM92.2303 43.5369C92.8174 43.5369 93.3193 43.4209 93.736 43.1889C94.1574 42.9569 94.477 42.6539 94.6948 42.2798C94.9174 41.901 95.0286 41.4962 95.0286 41.0653V39.6591C94.9529 39.7348 94.8061 39.8059 94.5883 39.8722C94.3752 39.9337 94.1314 39.9882 93.8567 40.0355C93.5821 40.0781 93.3146 40.1184 93.0542 40.1562C92.7938 40.1894 92.576 40.2178 92.4008 40.2415C91.9888 40.2936 91.6124 40.3812 91.2715 40.5043C90.9353 40.6274 90.6655 40.8049 90.4619 41.0369C90.263 41.2642 90.1636 41.5672 90.1636 41.946C90.1636 42.4716 90.3577 42.8693 90.746 43.1392C91.1342 43.4044 91.629 43.5369 92.2303 43.5369ZM102.204 38.5227V45H100.081V34.0909H102.119V35.8665H102.254C102.505 35.2888 102.898 34.8248 103.433 34.4744C103.973 34.1241 104.652 33.9489 105.471 33.9489C106.215 33.9489 106.866 34.1051 107.424 34.4176C107.983 34.7254 108.416 35.1847 108.724 35.7955C109.032 36.4062 109.186 37.1615 109.186 38.0611V45H107.062V38.3168C107.062 37.526 106.856 36.9081 106.444 36.4631C106.032 36.0133 105.467 35.7884 104.747 35.7884C104.254 35.7884 103.816 35.8949 103.433 36.108C103.054 36.321 102.754 36.6335 102.531 37.0455C102.313 37.4527 102.204 37.9451 102.204 38.5227ZM121.611 45.2131C120.73 45.2131 119.944 44.9882 119.253 44.5384C118.566 44.0838 118.026 43.4375 117.633 42.5994C117.245 41.7566 117.051 40.7457 117.051 39.5668C117.051 38.3878 117.247 37.3793 117.64 36.5412C118.038 35.7031 118.583 35.0616 119.274 34.6165C119.965 34.1714 120.749 33.9489 121.625 33.9489C122.302 33.9489 122.846 34.0625 123.258 34.2898C123.675 34.5123 123.997 34.7727 124.224 35.071C124.456 35.3693 124.636 35.6321 124.764 35.8594H124.892V30.4545H127.015V45H124.942V43.3026H124.764C124.636 43.5346 124.451 43.7997 124.21 44.098C123.973 44.3963 123.647 44.6567 123.23 44.8793C122.813 45.1018 122.273 45.2131 121.611 45.2131ZM122.079 43.402C122.69 43.402 123.206 43.241 123.628 42.919C124.054 42.5923 124.376 42.1402 124.594 41.5625C124.816 40.9848 124.927 40.3125 124.927 39.5455C124.927 38.7879 124.818 38.125 124.601 37.5568C124.383 36.9886 124.063 36.5459 123.642 36.2287C123.22 35.9115 122.7 35.7528 122.079 35.7528C121.44 35.7528 120.907 35.9186 120.481 36.25C120.055 36.5814 119.733 37.0336 119.515 37.6065C119.302 38.1795 119.196 38.8258 119.196 39.5455C119.196 40.2746 119.305 40.9304 119.523 41.5128C119.74 42.0952 120.062 42.5568 120.488 42.8977C120.919 43.2339 121.45 43.402 122.079 43.402ZM134.848 45.2202C133.773 45.2202 132.848 44.9905 132.071 44.5312C131.299 44.0672 130.703 43.4162 130.281 42.5781C129.865 41.7353 129.656 40.7481 129.656 39.6165C129.656 38.4991 129.865 37.5142 130.281 36.6619C130.703 35.8097 131.29 35.1444 132.043 34.6662C132.8 34.188 133.686 33.9489 134.699 33.9489C135.314 33.9489 135.911 34.0507 136.489 34.2543C137.066 34.4579 137.585 34.7775 138.044 35.2131C138.503 35.6487 138.866 36.2145 139.131 36.9105C139.396 37.6018 139.528 38.4422 139.528 39.4318V40.1847H130.857V38.5938H137.447C137.447 38.035 137.334 37.5402 137.107 37.1094C136.879 36.6738 136.56 36.3305 136.148 36.0795C135.741 35.8286 135.262 35.7031 134.713 35.7031C134.116 35.7031 133.596 35.8499 133.151 36.1435C132.71 36.4323 132.369 36.8111 132.128 37.2798C131.891 37.7438 131.773 38.2481 131.773 38.7926V40.0355C131.773 40.7647 131.901 41.3849 132.156 41.8963C132.417 42.4077 132.779 42.7983 133.243 43.0682C133.707 43.3333 134.249 43.4659 134.869 43.4659C135.272 43.4659 135.639 43.4091 135.97 43.2955C136.302 43.1771 136.588 43.0019 136.83 42.7699C137.071 42.5379 137.256 42.2514 137.384 41.9105L139.393 42.2727C139.232 42.8646 138.944 43.383 138.527 43.8281C138.115 44.2685 137.597 44.6117 136.972 44.858C136.351 45.0994 135.643 45.2202 134.848 45.2202ZM144.108 38.5227V45H141.985V34.0909H144.023V35.8665H144.158C144.409 35.2888 144.802 34.8248 145.337 34.4744C145.877 34.1241 146.556 33.9489 147.375 33.9489C148.119 33.9489 148.77 34.1051 149.328 34.4176C149.887 34.7254 150.32 35.1847 150.628 35.7955C150.936 36.4062 151.09 37.1615 151.09 38.0611V45H148.966V38.3168C148.966 37.526 148.76 36.9081 148.348 36.4631C147.936 36.0133 147.37 35.7884 146.651 35.7884C146.158 35.7884 145.72 35.8949 145.337 36.108C144.958 36.321 144.657 36.6335 144.435 37.0455C144.217 37.4527 144.108 37.9451 144.108 38.5227ZM158.612 49.3182C157.745 49.3182 156.999 49.2045 156.374 48.9773C155.754 48.75 155.247 48.4493 154.854 48.0753C154.461 47.7012 154.168 47.2917 153.974 46.8466L155.799 46.0938C155.927 46.3021 156.097 46.5223 156.31 46.7543C156.528 46.991 156.822 47.1922 157.191 47.358C157.565 47.5237 158.046 47.6065 158.633 47.6065C159.438 47.6065 160.103 47.41 160.629 47.017C161.154 46.6288 161.417 46.0085 161.417 45.1562V43.0114H161.282C161.154 43.2434 160.97 43.5014 160.728 43.7855C160.491 44.0696 160.165 44.3158 159.748 44.5241C159.331 44.7325 158.789 44.8366 158.122 44.8366C157.26 44.8366 156.483 44.6354 155.792 44.233C155.105 43.8258 154.561 43.2268 154.158 42.4361C153.761 41.6406 153.562 40.6629 153.562 39.5028C153.562 38.3428 153.758 37.3485 154.151 36.5199C154.549 35.6913 155.094 35.0568 155.785 34.6165C156.476 34.1714 157.26 33.9489 158.136 33.9489C158.813 33.9489 159.36 34.0625 159.776 34.2898C160.193 34.5123 160.517 34.7727 160.749 35.071C160.986 35.3693 161.168 35.6321 161.296 35.8594H161.452V34.0909H163.533V45.2415C163.533 46.179 163.316 46.9484 162.88 47.5497C162.444 48.151 161.855 48.5961 161.112 48.8849C160.373 49.1738 159.54 49.3182 158.612 49.3182ZM158.59 43.0753C159.201 43.0753 159.717 42.9332 160.139 42.6491C160.565 42.3603 160.887 41.9484 161.104 41.4134C161.327 40.8736 161.438 40.2273 161.438 39.4744C161.438 38.7405 161.329 38.0942 161.112 37.5355C160.894 36.9768 160.574 36.5412 160.153 36.2287C159.731 35.9115 159.211 35.7528 158.59 35.7528C157.951 35.7528 157.418 35.9186 156.992 36.25C156.566 36.5767 156.244 37.0218 156.026 37.5852C155.813 38.1487 155.707 38.7784 155.707 39.4744C155.707 40.1894 155.816 40.8168 156.033 41.3565C156.251 41.8963 156.573 42.3177 156.999 42.6207C157.43 42.9238 157.961 43.0753 158.59 43.0753ZM169.656 45.2415C168.965 45.2415 168.34 45.1136 167.781 44.858C167.222 44.5975 166.78 44.2211 166.453 43.7287C166.131 43.2363 165.97 42.6326 165.97 41.9176C165.97 41.3021 166.088 40.7955 166.325 40.3977C166.562 40 166.882 39.6851 167.284 39.4531C167.686 39.2211 168.136 39.0459 168.633 38.9276C169.131 38.8092 169.637 38.7192 170.153 38.6577C170.807 38.5819 171.337 38.5204 171.744 38.473C172.151 38.4209 172.447 38.3381 172.632 38.2244C172.817 38.1108 172.909 37.9261 172.909 37.6705V37.6207C172.909 37.0005 172.734 36.5199 172.383 36.179C172.038 35.8381 171.522 35.6676 170.835 35.6676C170.12 35.6676 169.557 35.8262 169.145 36.1435C168.738 36.456 168.456 36.804 168.3 37.1875L166.304 36.733C166.541 36.0701 166.886 35.535 167.341 35.1278C167.8 34.7159 168.328 34.4176 168.925 34.233C169.521 34.0436 170.149 33.9489 170.807 33.9489C171.242 33.9489 171.704 34.0009 172.192 34.1051C172.684 34.2045 173.143 34.3892 173.57 34.6591C174 34.929 174.353 35.3149 174.628 35.8168C174.902 36.3139 175.04 36.9602 175.04 37.7557V45H172.966V43.5085H172.881C172.743 43.7831 172.537 44.053 172.263 44.3182C171.988 44.5833 171.635 44.8035 171.204 44.9787C170.774 45.1539 170.258 45.2415 169.656 45.2415ZM170.118 43.5369C170.705 43.5369 171.207 43.4209 171.624 43.1889C172.045 42.9569 172.365 42.6539 172.582 42.2798C172.805 41.901 172.916 41.4962 172.916 41.0653V39.6591C172.84 39.7348 172.694 39.8059 172.476 39.8722C172.263 39.9337 172.019 39.9882 171.744 40.0355C171.47 40.0781 171.202 40.1184 170.942 40.1562C170.681 40.1894 170.463 40.2178 170.288 40.2415C169.876 40.2936 169.5 40.3812 169.159 40.5043C168.823 40.6274 168.553 40.8049 168.349 41.0369C168.151 41.2642 168.051 41.5672 168.051 41.946C168.051 42.4716 168.245 42.8693 168.633 43.1392C169.022 43.4044 169.517 43.5369 170.118 43.5369ZM180.092 38.5227V45H177.968V34.0909H180.007V35.8665H180.141C180.392 35.2888 180.785 34.8248 181.32 34.4744C181.86 34.1241 182.54 33.9489 183.359 33.9489C184.102 33.9489 184.753 34.1051 185.312 34.4176C185.871 34.7254 186.304 35.1847 186.612 35.7955C186.919 36.4062 187.073 37.1615 187.073 38.0611V45H184.95V38.3168C184.95 37.526 184.744 36.9081 184.332 36.4631C183.92 36.0133 183.354 35.7884 182.634 35.7884C182.142 35.7884 181.704 35.8949 181.32 36.108C180.942 36.321 180.641 36.6335 180.418 37.0455C180.201 37.4527 180.092 37.9451 180.092 38.5227ZM195.585 45V30.4545H200.769C201.896 30.4545 202.831 30.6487 203.575 31.0369C204.323 31.4252 204.882 31.9626 205.251 32.6491C205.62 33.331 205.805 34.1193 205.805 35.0142C205.805 35.9044 205.618 36.688 205.244 37.3651C204.875 38.0374 204.316 38.5606 203.568 38.9347C202.824 39.3087 201.889 39.4957 200.762 39.4957H196.835V37.6065H200.563C201.274 37.6065 201.851 37.5047 202.296 37.3011C202.746 37.0975 203.075 36.8016 203.284 36.4134C203.492 36.0251 203.596 35.5587 203.596 35.0142C203.596 34.465 203.49 33.9891 203.276 33.5866C203.068 33.1842 202.739 32.8764 202.289 32.6634C201.844 32.4455 201.259 32.3366 200.535 32.3366H197.779V45H195.585ZM202.765 38.4375L206.359 45H203.859L200.336 38.4375H202.765ZM212.97 45.2202C211.895 45.2202 210.969 44.9905 210.193 44.5312C209.421 44.0672 208.825 43.4162 208.403 42.5781C207.986 41.7353 207.778 40.7481 207.778 39.6165C207.778 38.4991 207.986 37.5142 208.403 36.6619C208.825 35.8097 209.412 35.1444 210.164 34.6662C210.922 34.188 211.807 33.9489 212.821 33.9489C213.436 33.9489 214.033 34.0507 214.611 34.2543C215.188 34.4579 215.707 34.7775 216.166 35.2131C216.625 35.6487 216.987 36.2145 217.253 36.9105C217.518 37.6018 217.65 38.4422 217.65 39.4318V40.1847H208.978V38.5938H215.569C215.569 38.035 215.456 37.5402 215.228 37.1094C215.001 36.6738 214.682 36.3305 214.27 36.0795C213.862 35.8286 213.384 35.7031 212.835 35.7031C212.238 35.7031 211.718 35.8499 211.272 36.1435C210.832 36.4323 210.491 36.8111 210.25 37.2798C210.013 37.7438 209.895 38.2481 209.895 38.7926V40.0355C209.895 40.7647 210.022 41.3849 210.278 41.8963C210.539 42.4077 210.901 42.7983 211.365 43.0682C211.829 43.3333 212.371 43.4659 212.991 43.4659C213.394 43.4659 213.761 43.4091 214.092 43.2955C214.423 43.1771 214.71 43.0019 214.951 42.7699C215.193 42.5379 215.378 42.2514 215.505 41.9105L217.515 42.2727C217.354 42.8646 217.066 43.383 216.649 43.8281C216.237 44.2685 215.718 44.6117 215.093 44.858C214.473 45.0994 213.765 45.2202 212.97 45.2202ZM222.06 41.2997L222.045 38.7074H222.415L226.761 34.0909H229.304L224.347 39.3466H224.013L222.06 41.2997ZM220.106 45V30.4545H222.23V45H220.106ZM226.996 45L223.089 39.8153L224.552 38.331L229.602 45H226.996ZM235.485 45.2202C234.462 45.2202 233.57 44.9858 232.808 44.517C232.045 44.0483 231.453 43.3925 231.032 42.5497C230.611 41.7069 230.4 40.7221 230.4 39.5952C230.4 38.4635 230.611 37.474 231.032 36.6264C231.453 35.7789 232.045 35.1207 232.808 34.652C233.57 34.1832 234.462 33.9489 235.485 33.9489C236.508 33.9489 237.4 34.1832 238.163 34.652C238.925 35.1207 239.517 35.7789 239.938 36.6264C240.36 37.474 240.57 38.4635 240.57 39.5952C240.57 40.7221 240.36 41.7069 239.938 42.5497C239.517 43.3925 238.925 44.0483 238.163 44.517C237.4 44.9858 236.508 45.2202 235.485 45.2202ZM235.492 43.4375C236.155 43.4375 236.704 43.2623 237.14 42.9119C237.576 42.5616 237.898 42.0952 238.106 41.5128C238.319 40.9304 238.426 40.2888 238.426 39.5881C238.426 38.892 238.319 38.2528 238.106 37.6705C237.898 37.0833 237.576 36.6122 237.14 36.2571C236.704 35.902 236.155 35.7244 235.492 35.7244C234.825 35.7244 234.271 35.902 233.83 36.2571C233.395 36.6122 233.07 37.0833 232.857 37.6705C232.649 38.2528 232.545 38.892 232.545 39.5881C232.545 40.2888 232.649 40.9304 232.857 41.5128C233.07 42.0952 233.395 42.5616 233.83 42.9119C234.271 43.2623 234.825 43.4375 235.492 43.4375ZM243.041 45V34.0909H245.079V35.8665H245.214C245.441 35.2652 245.813 34.7964 246.329 34.4602C246.845 34.1193 247.463 33.9489 248.183 33.9489C248.912 33.9489 249.523 34.1193 250.015 34.4602C250.512 34.8011 250.879 35.2699 251.116 35.8665H251.23C251.49 35.2841 251.904 34.8201 252.473 34.4744C253.041 34.1241 253.718 33.9489 254.504 33.9489C255.493 33.9489 256.301 34.259 256.926 34.8793C257.556 35.4995 257.87 36.4347 257.87 37.6847V45H255.747V37.8835C255.747 37.1449 255.546 36.6098 255.143 36.2784C254.741 35.947 254.26 35.7812 253.701 35.7812C253.01 35.7812 252.473 35.9943 252.089 36.4205C251.706 36.8419 251.514 37.384 251.514 38.0469V45H249.397V37.7486C249.397 37.1567 249.213 36.6809 248.843 36.321C248.474 35.9612 247.993 35.7812 247.402 35.7812C246.999 35.7812 246.627 35.8878 246.287 36.1009C245.95 36.3092 245.678 36.6004 245.47 36.9744C245.266 37.3485 245.164 37.7817 245.164 38.2741V45H243.041ZM265.518 45.2202C264.444 45.2202 263.518 44.9905 262.741 44.5312C261.97 44.0672 261.373 43.4162 260.952 42.5781C260.535 41.7353 260.327 40.7481 260.327 39.6165C260.327 38.4991 260.535 37.5142 260.952 36.6619C261.373 35.8097 261.96 35.1444 262.713 34.6662C263.471 34.188 264.356 33.9489 265.369 33.9489C265.985 33.9489 266.581 34.0507 267.159 34.2543C267.737 34.4579 268.255 34.7775 268.714 35.2131C269.174 35.6487 269.536 36.2145 269.801 36.9105C270.066 37.6018 270.199 38.4422 270.199 39.4318V40.1847H261.527V38.5938H268.118C268.118 38.035 268.004 37.5402 267.777 37.1094C267.55 36.6738 267.23 36.3305 266.818 36.0795C266.411 35.8286 265.933 35.7031 265.383 35.7031C264.787 35.7031 264.266 35.8499 263.821 36.1435C263.381 36.4323 263.04 36.8111 262.798 37.2798C262.561 37.7438 262.443 38.2481 262.443 38.7926V40.0355C262.443 40.7647 262.571 41.3849 262.827 41.8963C263.087 42.4077 263.449 42.7983 263.913 43.0682C264.377 43.3333 264.919 43.4659 265.54 43.4659C265.942 43.4659 266.309 43.4091 266.64 43.2955C266.972 43.1771 267.258 43.0019 267.5 42.7699C267.741 42.5379 267.926 42.2514 268.054 41.9105L270.064 42.2727C269.903 42.8646 269.614 43.383 269.197 43.8281C268.785 44.2685 268.267 44.6117 267.642 44.858C267.022 45.0994 266.314 45.2202 265.518 45.2202ZM274.778 38.5227V45H272.655V34.0909H274.693V35.8665H274.828C275.079 35.2888 275.472 34.8248 276.007 34.4744C276.547 34.1241 277.226 33.9489 278.046 33.9489C278.789 33.9489 279.44 34.1051 279.999 34.4176C280.557 34.7254 280.991 35.1847 281.298 35.7955C281.606 36.4062 281.76 37.1615 281.76 38.0611V45H279.636V38.3168C279.636 37.526 279.43 36.9081 279.019 36.4631C278.607 36.0133 278.041 35.7884 277.321 35.7884C276.829 35.7884 276.391 35.8949 276.007 36.108C275.628 36.321 275.328 36.6335 275.105 37.0455C274.887 37.4527 274.778 37.9451 274.778 38.5227ZM288.792 45.2131C287.911 45.2131 287.125 44.9882 286.434 44.5384C285.747 44.0838 285.208 43.4375 284.815 42.5994C284.426 41.7566 284.232 40.7457 284.232 39.5668C284.232 38.3878 284.429 37.3793 284.822 36.5412C285.219 35.7031 285.764 35.0616 286.455 34.6165C287.146 34.1714 287.93 33.9489 288.806 33.9489C289.483 33.9489 290.028 34.0625 290.44 34.2898C290.856 34.5123 291.178 34.7727 291.405 35.071C291.637 35.3693 291.817 35.6321 291.945 35.8594H292.073V30.4545H294.197V45H292.123V43.3026H291.945C291.817 43.5346 291.633 43.7997 291.391 44.098C291.155 44.3963 290.828 44.6567 290.411 44.8793C289.994 45.1018 289.455 45.2131 288.792 45.2131ZM289.261 43.402C289.871 43.402 290.387 43.241 290.809 42.919C291.235 42.5923 291.557 42.1402 291.775 41.5625C291.997 40.9848 292.109 40.3125 292.109 39.5455C292.109 38.7879 292 38.125 291.782 37.5568C291.564 36.9886 291.244 36.5459 290.823 36.2287C290.402 35.9115 289.881 35.7528 289.261 35.7528C288.621 35.7528 288.089 35.9186 287.663 36.25C287.236 36.5814 286.914 37.0336 286.697 37.6065C286.484 38.1795 286.377 38.8258 286.377 39.5455C286.377 40.2746 286.486 40.9304 286.704 41.5128C286.922 42.0952 287.244 42.5568 287.67 42.8977C288.101 43.2339 288.631 43.402 289.261 43.402ZM300.502 45.2415C299.811 45.2415 299.186 45.1136 298.627 44.858C298.069 44.5975 297.626 44.2211 297.299 43.7287C296.977 43.2363 296.816 42.6326 296.816 41.9176C296.816 41.3021 296.935 40.7955 297.171 40.3977C297.408 40 297.728 39.6851 298.13 39.4531C298.533 39.2211 298.982 39.0459 299.48 38.9276C299.977 38.8092 300.483 38.7192 300.999 38.6577C301.653 38.5819 302.183 38.5204 302.59 38.473C302.998 38.4209 303.293 38.3381 303.478 38.2244C303.663 38.1108 303.755 37.9261 303.755 37.6705V37.6207C303.755 37.0005 303.58 36.5199 303.23 36.179C302.884 35.8381 302.368 35.6676 301.681 35.6676C300.966 35.6676 300.403 35.8262 299.991 36.1435C299.584 36.456 299.302 36.804 299.146 37.1875L297.15 36.733C297.387 36.0701 297.732 35.535 298.187 35.1278C298.646 34.7159 299.174 34.4176 299.771 34.233C300.367 34.0436 300.995 33.9489 301.653 33.9489C302.088 33.9489 302.55 34.0009 303.038 34.1051C303.53 34.2045 303.989 34.3892 304.416 34.6591C304.846 34.929 305.199 35.3149 305.474 35.8168C305.748 36.3139 305.886 36.9602 305.886 37.7557V45H303.812V43.5085H303.727C303.589 43.7831 303.383 44.053 303.109 44.3182C302.834 44.5833 302.481 44.8035 302.051 44.9787C301.62 45.1539 301.104 45.2415 300.502 45.2415ZM300.964 43.5369C301.551 43.5369 302.053 43.4209 302.47 43.1889C302.891 42.9569 303.211 42.6539 303.428 42.2798C303.651 41.901 303.762 41.4962 303.762 41.0653V39.6591C303.686 39.7348 303.54 39.8059 303.322 39.8722C303.109 39.9337 302.865 39.9882 302.59 40.0355C302.316 40.0781 302.048 40.1184 301.788 40.1562C301.527 40.1894 301.31 40.2178 301.134 40.2415C300.722 40.2936 300.346 40.3812 300.005 40.5043C299.669 40.6274 299.399 40.8049 299.195 41.0369C298.997 41.2642 298.897 41.5672 298.897 41.946C298.897 42.4716 299.091 42.8693 299.48 43.1392C299.868 43.4044 300.363 43.5369 300.964 43.5369ZM316.989 36.7543L315.064 37.0952C314.984 36.849 314.856 36.6146 314.681 36.392C314.51 36.1695 314.278 35.9872 313.985 35.8452C313.691 35.7031 313.324 35.6321 312.884 35.6321C312.283 35.6321 311.781 35.767 311.378 36.0369C310.976 36.3021 310.775 36.6454 310.775 37.0668C310.775 37.4313 310.909 37.7249 311.179 37.9474C311.449 38.17 311.885 38.3523 312.486 38.4943L314.219 38.892C315.223 39.1241 315.971 39.4815 316.463 39.9645C316.956 40.4474 317.202 41.0748 317.202 41.8466C317.202 42.5 317.013 43.0824 316.634 43.5938C316.26 44.1004 315.737 44.4981 315.064 44.7869C314.397 45.0758 313.623 45.2202 312.742 45.2202C311.52 45.2202 310.524 44.9598 309.752 44.4389C308.98 43.9134 308.507 43.1676 308.331 42.2017L310.384 41.8892C310.512 42.4242 310.775 42.8291 311.172 43.1037C311.57 43.3736 312.088 43.5085 312.728 43.5085C313.424 43.5085 313.98 43.3641 314.397 43.0753C314.813 42.7817 315.022 42.4242 315.022 42.0028C315.022 41.6619 314.894 41.3755 314.638 41.1435C314.387 40.9115 314.001 40.7363 313.48 40.6179L311.634 40.2131C310.616 39.9811 309.863 39.6117 309.375 39.1051C308.892 38.5985 308.651 37.9569 308.651 37.1804C308.651 36.5365 308.831 35.973 309.191 35.4901C309.551 35.0071 310.048 34.6307 310.682 34.3608C311.317 34.0862 312.043 33.9489 312.863 33.9489C314.042 33.9489 314.97 34.2045 315.647 34.7159C316.324 35.2225 316.771 35.902 316.989 36.7543ZM319.637 45V34.0909H321.761V45H319.637ZM320.709 32.4077C320.34 32.4077 320.023 32.2846 319.758 32.0384C319.497 31.7874 319.367 31.4891 319.367 31.1435C319.367 30.7931 319.497 30.4948 319.758 30.2486C320.023 29.9976 320.34 29.8722 320.709 29.8722C321.079 29.8722 321.394 29.9976 321.654 30.2486C321.919 30.4948 322.052 30.7931 322.052 31.1435C322.052 31.4891 321.919 31.7874 321.654 32.0384C321.394 32.2846 321.079 32.4077 320.709 32.4077Z" fill="black"/>
<path d="M23.625 83.4205C23.5644 82.8826 23.3144 82.4659 22.875 82.1705C22.4356 81.8712 21.8826 81.7216 21.2159 81.7216C20.7386 81.7216 20.3258 81.7973 19.9773 81.9489C19.6288 82.0966 19.358 82.3011 19.1648 82.5625C18.9754 82.8201 18.8807 83.1136 18.8807 83.4432C18.8807 83.7197 18.9451 83.9583 19.0739 84.1591C19.2064 84.3598 19.3788 84.5284 19.5909 84.6648C19.8068 84.7973 20.0379 84.9091 20.2841 85C20.5303 85.0871 20.767 85.1591 20.9943 85.2159L22.1307 85.5114C22.5019 85.6023 22.8826 85.7254 23.2727 85.8807C23.6629 86.036 24.0246 86.2405 24.358 86.4943C24.6913 86.7481 24.9602 87.0625 25.1648 87.4375C25.3731 87.8125 25.4773 88.2614 25.4773 88.7841C25.4773 89.4432 25.3068 90.0284 24.9659 90.5398C24.6288 91.0511 24.1383 91.4545 23.4943 91.75C22.8542 92.0455 22.0795 92.1932 21.1705 92.1932C20.2992 92.1932 19.5455 92.0549 18.9091 91.7784C18.2727 91.5019 17.7746 91.1098 17.4148 90.6023C17.0549 90.0909 16.8561 89.4848 16.8182 88.7841H18.5795C18.6136 89.2045 18.75 89.5549 18.9886 89.8352C19.2311 90.1117 19.5398 90.3182 19.9148 90.4545C20.2936 90.5871 20.7083 90.6534 21.1591 90.6534C21.6553 90.6534 22.0966 90.5758 22.483 90.4205C22.8731 90.2614 23.1799 90.0417 23.4034 89.7614C23.6269 89.4773 23.7386 89.1458 23.7386 88.767C23.7386 88.4223 23.6402 88.1402 23.4432 87.9205C23.25 87.7008 22.9867 87.5189 22.6534 87.375C22.3239 87.2311 21.9508 87.1042 21.5341 86.9943L20.1591 86.6193C19.2273 86.3655 18.4886 85.9924 17.9432 85.5C17.4015 85.0076 17.1307 84.3561 17.1307 83.5455C17.1307 82.875 17.3125 82.2898 17.6761 81.7898C18.0398 81.2898 18.5322 80.9015 19.1534 80.625C19.7746 80.3447 20.4754 80.2045 21.2557 80.2045C22.0436 80.2045 22.7386 80.3428 23.3409 80.6193C23.947 80.8958 24.4242 81.2765 24.7727 81.7614C25.1212 82.2424 25.303 82.7955 25.3182 83.4205H23.625ZM30.0587 92.1932C29.5057 92.1932 29.0057 92.0909 28.5587 91.8864C28.1117 91.678 27.7576 91.3769 27.4962 90.983C27.2386 90.589 27.1098 90.1061 27.1098 89.5341C27.1098 89.0417 27.2045 88.6364 27.3939 88.3182C27.5833 88 27.839 87.7481 28.161 87.5625C28.4829 87.3769 28.8428 87.2367 29.2405 87.142C29.6382 87.0473 30.0435 86.9754 30.4564 86.9261C30.9791 86.8655 31.4034 86.8163 31.7291 86.7784C32.0549 86.7367 32.2916 86.6705 32.4394 86.5795C32.5871 86.4886 32.661 86.3409 32.661 86.1364V86.0966C32.661 85.6004 32.5208 85.2159 32.2405 84.9432C31.964 84.6705 31.5511 84.5341 31.0019 84.5341C30.4299 84.5341 29.9791 84.661 29.6496 84.9148C29.3238 85.1648 29.0985 85.4432 28.9735 85.75L27.3769 85.3864C27.5663 84.8561 27.8428 84.428 28.2064 84.1023C28.5738 83.7727 28.9962 83.5341 29.4735 83.3864C29.9507 83.2348 30.4526 83.1591 30.9791 83.1591C31.3276 83.1591 31.697 83.2008 32.0871 83.2841C32.481 83.3636 32.8485 83.5114 33.1894 83.7273C33.5341 83.9432 33.8163 84.2519 34.036 84.6534C34.2557 85.0511 34.3655 85.5682 34.3655 86.2045V92H32.7064V90.8068H32.6382C32.5284 91.0265 32.3636 91.2424 32.1439 91.4545C31.9242 91.6667 31.642 91.8428 31.2973 91.983C30.9526 92.1231 30.5398 92.1932 30.0587 92.1932ZM30.428 90.8295C30.8977 90.8295 31.2992 90.7367 31.6326 90.5511C31.9697 90.3655 32.2254 90.1231 32.3996 89.8239C32.5776 89.5208 32.6666 89.197 32.6666 88.8523V87.7273C32.606 87.7879 32.4886 87.8447 32.3144 87.8977C32.1439 87.947 31.9488 87.9905 31.7291 88.0284C31.5095 88.0625 31.2954 88.0947 31.0871 88.125C30.8788 88.1515 30.7045 88.1742 30.5644 88.1932C30.2348 88.2348 29.9337 88.3049 29.661 88.4034C29.392 88.5019 29.1761 88.6439 29.0132 88.8295C28.8541 89.0114 28.7746 89.2538 28.7746 89.5568C28.7746 89.9773 28.9299 90.2955 29.2405 90.5114C29.5511 90.7235 29.947 90.8295 30.428 90.8295ZM38.4072 86.8182V92H36.7083V83.2727H38.339V84.6932H38.4469C38.6477 84.2311 38.9621 83.8598 39.3901 83.5795C39.8219 83.2992 40.3655 83.1591 41.0208 83.1591C41.6155 83.1591 42.1363 83.2841 42.5833 83.5341C43.0303 83.7803 43.3769 84.1477 43.6231 84.6364C43.8693 85.125 43.9924 85.7292 43.9924 86.4489V92H42.2935V86.6534C42.2935 86.0208 42.1288 85.5265 41.7992 85.1705C41.4697 84.8106 41.017 84.6307 40.4412 84.6307C40.0473 84.6307 39.6969 84.7159 39.3901 84.8864C39.0871 85.0568 38.8466 85.3068 38.6685 85.6364C38.4943 85.9621 38.4072 86.3561 38.4072 86.8182ZM50.0099 95.4545C49.3167 95.4545 48.7201 95.3636 48.2201 95.1818C47.7239 95 47.3186 94.7595 47.0042 94.4602C46.6898 94.161 46.455 93.8333 46.2997 93.4773L47.7599 92.875C47.8622 93.0417 47.9985 93.2178 48.169 93.4034C48.3432 93.5928 48.5781 93.7538 48.8735 93.8864C49.1728 94.0189 49.5572 94.0852 50.0269 94.0852C50.6709 94.0852 51.2031 93.928 51.6235 93.6136C52.044 93.303 52.2542 92.8068 52.2542 92.125V90.4091H52.1462C52.044 90.5947 51.8962 90.8011 51.7031 91.0284C51.5137 91.2557 51.2523 91.4527 50.919 91.6193C50.5856 91.786 50.1519 91.8693 49.6178 91.8693C48.9284 91.8693 48.3072 91.7083 47.7542 91.3864C47.205 91.0606 46.7694 90.5814 46.4474 89.9489C46.1292 89.3125 45.9701 88.5303 45.9701 87.6023C45.9701 86.6742 46.1273 85.8788 46.4417 85.2159C46.7599 84.553 47.1955 84.0455 47.7485 83.6932C48.3016 83.3371 48.9284 83.1591 49.6292 83.1591C50.1709 83.1591 50.6084 83.25 50.9417 83.4318C51.275 83.6098 51.5345 83.8182 51.7201 84.0568C51.9095 84.2955 52.0553 84.5057 52.1576 84.6875H52.2826V83.2727H53.9474V92.1932C53.9474 92.9432 53.7731 93.5587 53.4247 94.0398C53.0762 94.5208 52.6046 94.8769 52.0099 95.108C51.419 95.339 50.7523 95.4545 50.0099 95.4545ZM49.9928 90.4602C50.4815 90.4602 50.8944 90.3466 51.2315 90.1193C51.5724 89.8883 51.83 89.5587 52.0042 89.1307C52.1822 88.6989 52.2712 88.1818 52.2712 87.5795C52.2712 86.9924 52.1841 86.4754 52.0099 86.0284C51.8356 85.5814 51.58 85.233 51.2428 84.983C50.9057 84.7292 50.4891 84.6023 49.9928 84.6023C49.4815 84.6023 49.0553 84.7348 48.7144 85C48.3735 85.2614 48.1159 85.6174 47.9417 86.0682C47.7712 86.5189 47.686 87.0227 47.686 87.5795C47.686 88.1515 47.7731 88.6534 47.9474 89.0852C48.1216 89.517 48.3792 89.8542 48.7201 90.0966C49.0648 90.339 49.4891 90.4602 49.9928 90.4602ZM58.8456 92.1932C58.2925 92.1932 57.7925 92.0909 57.3456 91.8864C56.8986 91.678 56.5444 91.3769 56.2831 90.983C56.0255 90.589 55.8967 90.1061 55.8967 89.5341C55.8967 89.0417 55.9914 88.6364 56.1808 88.3182C56.3702 88 56.6259 87.7481 56.9478 87.5625C57.2698 87.3769 57.6297 87.2367 58.0274 87.142C58.4251 87.0473 58.8304 86.9754 59.2433 86.9261C59.766 86.8655 60.1903 86.8163 60.516 86.7784C60.8418 86.7367 61.0785 86.6705 61.2262 86.5795C61.374 86.4886 61.4478 86.3409 61.4478 86.1364V86.0966C61.4478 85.6004 61.3077 85.2159 61.0274 84.9432C60.7509 84.6705 60.338 84.5341 59.7887 84.5341C59.2168 84.5341 58.766 84.661 58.4365 84.9148C58.1107 85.1648 57.8853 85.4432 57.7603 85.75L56.1637 85.3864C56.3531 84.8561 56.6297 84.428 56.9933 84.1023C57.3607 83.7727 57.7831 83.5341 58.2603 83.3864C58.7376 83.2348 59.2395 83.1591 59.766 83.1591C60.1145 83.1591 60.4838 83.2008 60.874 83.2841C61.2679 83.3636 61.6353 83.5114 61.9762 83.7273C62.3209 83.9432 62.6031 84.2519 62.8228 84.6534C63.0425 85.0511 63.1524 85.5682 63.1524 86.2045V92H61.4933V90.8068H61.4251C61.3153 91.0265 61.1505 91.2424 60.9308 91.4545C60.7111 91.6667 60.4289 91.8428 60.0842 91.983C59.7395 92.1231 59.3266 92.1932 58.8456 92.1932ZM59.2149 90.8295C59.6846 90.8295 60.0861 90.7367 60.4194 90.5511C60.7566 90.3655 61.0122 90.1231 61.1865 89.8239C61.3645 89.5208 61.4535 89.197 61.4535 88.8523V87.7273C61.3929 87.7879 61.2755 87.8447 61.1012 87.8977C60.9308 87.947 60.7357 87.9905 60.516 88.0284C60.2963 88.0625 60.0823 88.0947 59.874 88.125C59.6656 88.1515 59.4914 88.1742 59.3512 88.1932C59.0217 88.2348 58.7206 88.3049 58.4478 88.4034C58.1789 88.5019 57.963 88.6439 57.8001 88.8295C57.641 89.0114 57.5615 89.2538 57.5615 89.5568C57.5615 89.9773 57.7168 90.2955 58.0274 90.5114C58.338 90.7235 58.7338 90.8295 59.2149 90.8295ZM69.569 83.2727V84.6364H64.802V83.2727H69.569ZM66.0804 81.1818H67.7793V89.4375C67.7793 89.767 67.8285 90.0152 67.927 90.1818C68.0255 90.3447 68.1524 90.4564 68.3077 90.517C68.4668 90.5739 68.6391 90.6023 68.8247 90.6023C68.9611 90.6023 69.0804 90.5928 69.1827 90.5739C69.2849 90.5549 69.3645 90.5398 69.4213 90.5284L69.7281 91.9318C69.6296 91.9697 69.4895 92.0076 69.3077 92.0455C69.1259 92.0871 68.8986 92.1098 68.6259 92.1136C68.1789 92.1212 67.7622 92.0417 67.3759 91.875C66.9895 91.7083 66.677 91.4508 66.4384 91.1023C66.1997 90.7538 66.0804 90.3163 66.0804 89.7898V81.1818ZM75.979 92V80.3636H80.1268C81.0321 80.3636 81.7821 80.5284 82.3768 80.858C82.9715 81.1875 83.4165 81.6383 83.712 82.2102C84.0074 82.7784 84.1552 83.4186 84.1552 84.1307C84.1552 84.8466 84.0056 85.4905 83.7063 86.0625C83.4109 86.6307 82.9639 87.0814 82.3654 87.4148C81.7707 87.7443 81.0226 87.9091 80.1211 87.9091H77.2688V86.4205H79.962C80.534 86.4205 80.998 86.322 81.354 86.125C81.7101 85.9242 81.9715 85.6515 82.1381 85.3068C82.3048 84.9621 82.3881 84.5701 82.3881 84.1307C82.3881 83.6913 82.3048 83.3011 82.1381 82.9602C81.9715 82.6193 81.7082 82.3523 81.3484 82.1591C80.9923 81.9659 80.5226 81.8693 79.9393 81.8693H77.7347V92H75.979ZM91.6855 88.3807V83.2727H93.39V92H91.7195V90.4886H91.6286C91.4279 90.9545 91.1059 91.3428 90.6627 91.6534C90.2233 91.9602 89.676 92.1136 89.0207 92.1136C88.4601 92.1136 87.9639 91.9905 87.532 91.7443C87.104 91.4943 86.7669 91.125 86.5207 90.6364C86.2783 90.1477 86.157 89.5436 86.157 88.8239V83.2727H87.8559V88.6193C87.8559 89.214 88.0207 89.6875 88.3502 90.0398C88.6798 90.392 89.1078 90.5682 89.6343 90.5682C89.9525 90.5682 90.2688 90.4886 90.5832 90.3295C90.9014 90.1705 91.1646 89.9299 91.373 89.608C91.5851 89.286 91.6892 88.8769 91.6855 88.3807ZM98.2924 92.1932C97.7394 92.1932 97.2394 92.0909 96.7924 91.8864C96.3455 91.678 95.9913 91.3769 95.7299 90.983C95.4724 90.589 95.3436 90.1061 95.3436 89.5341C95.3436 89.0417 95.4383 88.6364 95.6277 88.3182C95.8171 88 96.0727 87.7481 96.3947 87.5625C96.7167 87.3769 97.0765 87.2367 97.4743 87.142C97.872 87.0473 98.2773 86.9754 98.6902 86.9261C99.2129 86.8655 99.6371 86.8163 99.9629 86.7784C100.289 86.7367 100.525 86.6705 100.673 86.5795C100.821 86.4886 100.895 86.3409 100.895 86.1364V86.0966C100.895 85.6004 100.755 85.2159 100.474 84.9432C100.198 84.6705 99.7849 84.5341 99.2356 84.5341C98.6637 84.5341 98.2129 84.661 97.8834 84.9148C97.5576 85.1648 97.3322 85.4432 97.2072 85.75L95.6106 85.3864C95.8 84.8561 96.0765 84.428 96.4402 84.1023C96.8076 83.7727 97.2299 83.5341 97.7072 83.3864C98.1845 83.2348 98.6864 83.1591 99.2129 83.1591C99.5614 83.1591 99.9307 83.2008 100.321 83.2841C100.715 83.3636 101.082 83.5114 101.423 83.7273C101.768 83.9432 102.05 84.2519 102.27 84.6534C102.489 85.0511 102.599 85.5682 102.599 86.2045V92H100.94V90.8068H100.872C100.762 91.0265 100.597 91.2424 100.378 91.4545C100.158 91.6667 99.8758 91.8428 99.5311 91.983C99.1864 92.1231 98.7735 92.1932 98.2924 92.1932ZM98.6618 90.8295C99.1315 90.8295 99.533 90.7367 99.8663 90.5511C100.203 90.3655 100.459 90.1231 100.633 89.8239C100.811 89.5208 100.9 89.197 100.9 88.8523V87.7273C100.84 87.7879 100.722 87.8447 100.548 87.8977C100.378 87.947 100.183 87.9905 99.9629 88.0284C99.7432 88.0625 99.5292 88.0947 99.3209 88.125C99.1125 88.1515 98.9383 88.1742 98.7981 88.1932C98.4686 88.2348 98.1674 88.3049 97.8947 88.4034C97.6258 88.5019 97.4099 88.6439 97.247 88.8295C97.0879 89.0114 97.0084 89.2538 97.0084 89.5568C97.0084 89.9773 97.1637 90.2955 97.4743 90.5114C97.7849 90.7235 98.1807 90.8295 98.6618 90.8295ZM111.482 85.4034L109.942 85.6761C109.878 85.4792 109.775 85.2917 109.635 85.1136C109.499 84.9356 109.313 84.7898 109.078 84.6761C108.844 84.5625 108.55 84.5057 108.198 84.5057C107.717 84.5057 107.315 84.6136 106.993 84.8295C106.671 85.0417 106.51 85.3163 106.51 85.6534C106.51 85.9451 106.618 86.1799 106.834 86.358C107.05 86.536 107.398 86.6818 107.88 86.7955L109.266 87.1136C110.069 87.2992 110.667 87.5852 111.061 87.9716C111.455 88.358 111.652 88.8598 111.652 89.4773C111.652 90 111.501 90.4659 111.198 90.875C110.898 91.2803 110.48 91.5985 109.942 91.8295C109.408 92.0606 108.789 92.1761 108.084 92.1761C107.107 92.1761 106.309 91.9678 105.692 91.5511C105.075 91.1307 104.696 90.5341 104.556 89.7614L106.198 89.5114C106.3 89.9394 106.51 90.2633 106.828 90.483C107.147 90.6989 107.561 90.8068 108.073 90.8068C108.63 90.8068 109.075 90.6913 109.408 90.4602C109.741 90.2254 109.908 89.9394 109.908 89.6023C109.908 89.3295 109.806 89.1004 109.601 88.9148C109.4 88.7292 109.092 88.589 108.675 88.4943L107.198 88.1705C106.383 87.9848 105.781 87.6894 105.391 87.2841C105.005 86.8788 104.811 86.3655 104.811 85.7443C104.811 85.2292 104.955 84.7784 105.243 84.392C105.531 84.0057 105.929 83.7045 106.436 83.4886C106.944 83.2689 107.525 83.1591 108.181 83.1591C109.124 83.1591 109.866 83.3636 110.408 83.7727C110.95 84.178 111.308 84.7216 111.482 85.4034Z" fill="#1F2937"/>
<path d="M526.34 91.1392C525.717 91.1392 525.157 91.0199 524.66 90.7812C524.166 90.5393 523.772 90.2079 523.477 89.7869C523.182 89.366 523.024 88.8854 523.004 88.3452H524.496C524.532 88.7827 524.726 89.1423 525.077 89.424C525.429 89.7057 525.85 89.8466 526.34 89.8466C526.731 89.8466 527.078 89.7571 527.379 89.5781C527.684 89.3958 527.923 89.1456 528.095 88.8274C528.271 88.5092 528.359 88.1463 528.359 87.7386C528.359 87.3243 528.269 86.9548 528.09 86.63C527.911 86.3052 527.664 86.05 527.349 85.8643C527.038 85.6787 526.68 85.5843 526.276 85.581C525.967 85.581 525.657 85.634 525.346 85.7401C525.034 85.8461 524.782 85.9853 524.59 86.1577L523.183 85.9489L523.755 80.8182H529.353V82.1357H525.033L524.71 84.9844H524.769C524.968 84.7921 525.232 84.6314 525.56 84.5021C525.891 84.3729 526.246 84.3082 526.624 84.3082C527.243 84.3082 527.795 84.4557 528.279 84.7507C528.766 85.0457 529.149 85.4484 529.428 85.9588C529.709 86.4659 529.848 87.0492 529.845 87.7088C529.848 88.3684 529.699 88.9567 529.398 89.4737C529.099 89.9908 528.685 90.3984 528.155 90.6967C527.628 90.9917 527.023 91.1392 526.34 91.1392ZM535.276 91.169C534.49 91.1657 533.819 90.9586 533.262 90.5476C532.705 90.1366 532.28 89.5384 531.985 88.7528C531.69 87.9673 531.542 87.0211 531.542 85.9141C531.542 84.8104 531.69 83.8674 531.985 83.0852C532.283 82.303 532.71 81.7064 533.267 81.2955C533.827 80.8845 534.497 80.679 535.276 80.679C536.055 80.679 536.723 80.8861 537.279 81.3004C537.836 81.7114 538.262 82.308 538.557 83.0902C538.855 83.8691 539.004 84.8104 539.004 85.9141C539.004 87.0244 538.857 87.9723 538.562 88.7578C538.267 89.54 537.841 90.1383 537.284 90.5526C536.727 90.9635 536.058 91.169 535.276 91.169ZM535.276 89.8416C535.965 89.8416 536.504 89.5052 536.892 88.8324C537.283 88.1596 537.478 87.1868 537.478 85.9141C537.478 85.0689 537.389 84.3546 537.21 83.7713C537.034 83.1847 536.781 82.7405 536.449 82.4389C536.121 82.134 535.73 81.9815 535.276 81.9815C534.59 81.9815 534.051 82.3196 533.66 82.9957C533.269 83.6719 533.072 84.6446 533.068 85.9141C533.068 86.7625 533.156 87.4801 533.332 88.0668C533.511 88.6501 533.764 89.0926 534.093 89.3942C534.421 89.6925 534.815 89.8416 535.276 89.8416ZM546.153 89.0909V88.554C546.153 88.1695 546.232 87.8182 546.391 87.5C546.554 87.1785 546.789 86.9216 547.097 86.7294C547.409 86.5339 547.785 86.4361 548.226 86.4361C548.677 86.4361 549.055 86.5322 549.359 86.7244C549.664 86.9167 549.895 87.1735 550.051 87.495C550.21 87.8165 550.289 88.1695 550.289 88.554V89.0909C550.289 89.4754 550.21 89.8284 550.051 90.1499C549.891 90.468 549.658 90.7249 549.35 90.9205C549.045 91.1127 548.67 91.2088 548.226 91.2088C547.778 91.2088 547.401 91.1127 547.092 90.9205C546.784 90.7249 546.551 90.468 546.391 90.1499C546.232 89.8284 546.153 89.4754 546.153 89.0909ZM547.311 88.554V89.0909C547.311 89.3759 547.379 89.6345 547.515 89.8665C547.651 90.0985 547.888 90.2145 548.226 90.2145C548.561 90.2145 548.794 90.0985 548.927 89.8665C549.06 89.6345 549.126 89.3759 549.126 89.0909V88.554C549.126 88.2689 549.061 88.0104 548.932 87.7784C548.806 87.5464 548.571 87.4304 548.226 87.4304C547.894 87.4304 547.659 87.5464 547.52 87.7784C547.381 88.0104 547.311 88.2689 547.311 88.554ZM541.032 83.2642V82.7273C541.032 82.3428 541.112 81.9898 541.271 81.6683C541.433 81.3468 541.668 81.09 541.977 80.8977C542.288 80.7055 542.664 80.6094 543.105 80.6094C543.556 80.6094 543.934 80.7055 544.239 80.8977C544.544 81.09 544.774 81.3468 544.93 81.6683C545.086 81.9898 545.163 82.3428 545.163 82.7273V83.2642C545.163 83.6487 545.084 84.0017 544.925 84.3232C544.769 84.6413 544.537 84.8982 544.229 85.0938C543.924 85.286 543.549 85.3821 543.105 85.3821C542.654 85.3821 542.275 85.286 541.967 85.0938C541.662 84.8982 541.43 84.6413 541.271 84.3232C541.112 84.0017 541.032 83.6487 541.032 83.2642ZM542.195 82.7273V83.2642C542.195 83.5492 542.262 83.8078 542.394 84.0398C542.53 84.2718 542.767 84.3878 543.105 84.3878C543.437 84.3878 543.669 84.2718 543.801 84.0398C543.937 83.8078 544.005 83.5492 544.005 83.2642V82.7273C544.005 82.4422 543.94 82.1837 543.811 81.9517C543.682 81.7197 543.447 81.6037 543.105 81.6037C542.774 81.6037 542.538 81.7197 542.399 81.9517C542.263 82.1837 542.195 82.4422 542.195 82.7273ZM541.504 91L548.504 80.8182H549.693L542.693 91H541.504Z" fill="#1F2937"/>
<path d="M16 113C16 110.239 18.2386 108 21 108H547C549.761 108 552 110.239 552 113C552 115.761 549.761 118 547 118H21C18.2386 118 16 115.761 16 113Z" fill="#F3F4F6"/>
<path d="M16 113C16 110.239 18.2386 108 21 108H261C263.761 108 266 110.239 266 113C266 115.761 263.761 118 261 118H21C18.2386 118 16 115.761 16 113Z" fill="#4C956C"/>
<path d="M17.2784 152V140.364H21.4261C22.3314 140.364 23.0814 140.528 23.6761 140.858C24.2708 141.187 24.7159 141.638 25.0114 142.21C25.3068 142.778 25.4545 143.419 25.4545 144.131C25.4545 144.847 25.3049 145.491 25.0057 146.062C24.7102 146.631 24.2633 147.081 23.6648 147.415C23.0701 147.744 22.322 147.909 21.4205 147.909H18.5682V146.42H21.2614C21.8333 146.42 22.2973 146.322 22.6534 146.125C23.0095 145.924 23.2708 145.652 23.4375 145.307C23.6042 144.962 23.6875 144.57 23.6875 144.131C23.6875 143.691 23.6042 143.301 23.4375 142.96C23.2708 142.619 23.0076 142.352 22.6477 142.159C22.2917 141.966 21.822 141.869 21.2386 141.869H19.0341V152H17.2784ZM32.9848 148.381V143.273H34.6894V152H33.0189V150.489H32.928C32.7273 150.955 32.4053 151.343 31.9621 151.653C31.5227 151.96 30.9754 152.114 30.3201 152.114C29.7595 152.114 29.2632 151.991 28.8314 151.744C28.4034 151.494 28.0663 151.125 27.8201 150.636C27.5776 150.148 27.4564 149.544 27.4564 148.824V143.273H29.1553V148.619C29.1553 149.214 29.3201 149.687 29.6496 150.04C29.9791 150.392 30.4072 150.568 30.9337 150.568C31.2519 150.568 31.5682 150.489 31.8826 150.33C32.2007 150.17 32.464 149.93 32.6723 149.608C32.8845 149.286 32.9886 148.877 32.9848 148.381ZM39.5918 152.193C39.0388 152.193 38.5388 152.091 38.0918 151.886C37.6448 151.678 37.2907 151.377 37.0293 150.983C36.7717 150.589 36.643 150.106 36.643 149.534C36.643 149.042 36.7377 148.636 36.927 148.318C37.1164 148 37.3721 147.748 37.6941 147.562C38.0161 147.377 38.3759 147.237 38.7736 147.142C39.1714 147.047 39.5767 146.975 39.9895 146.926C40.5123 146.866 40.9365 146.816 41.2623 146.778C41.588 146.737 41.8248 146.67 41.9725 146.58C42.1202 146.489 42.1941 146.341 42.1941 146.136V146.097C42.1941 145.6 42.0539 145.216 41.7736 144.943C41.4971 144.67 41.0842 144.534 40.535 144.534C39.963 144.534 39.5123 144.661 39.1827 144.915C38.857 145.165 38.6316 145.443 38.5066 145.75L36.91 145.386C37.0994 144.856 37.3759 144.428 37.7395 144.102C38.107 143.773 38.5293 143.534 39.0066 143.386C39.4839 143.235 39.9858 143.159 40.5123 143.159C40.8608 143.159 41.2301 143.201 41.6202 143.284C42.0142 143.364 42.3816 143.511 42.7225 143.727C43.0672 143.943 43.3494 144.252 43.5691 144.653C43.7888 145.051 43.8986 145.568 43.8986 146.205V152H42.2395V150.807H42.1714C42.0615 151.027 41.8967 151.242 41.677 151.455C41.4573 151.667 41.1752 151.843 40.8305 151.983C40.4858 152.123 40.0729 152.193 39.5918 152.193ZM39.9611 150.83C40.4308 150.83 40.8323 150.737 41.1657 150.551C41.5028 150.366 41.7585 150.123 41.9327 149.824C42.1108 149.521 42.1998 149.197 42.1998 148.852V147.727C42.1392 147.788 42.0217 147.845 41.8475 147.898C41.677 147.947 41.482 147.991 41.2623 148.028C41.0426 148.062 40.8286 148.095 40.6202 148.125C40.4119 148.152 40.2377 148.174 40.0975 148.193C39.768 148.235 39.4668 148.305 39.1941 148.403C38.9252 148.502 38.7092 148.644 38.5464 148.83C38.3873 149.011 38.3077 149.254 38.3077 149.557C38.3077 149.977 38.463 150.295 38.7736 150.511C39.0842 150.723 39.4801 150.83 39.9611 150.83ZM52.7812 145.403L51.2414 145.676C51.177 145.479 51.0748 145.292 50.9346 145.114C50.7982 144.936 50.6126 144.79 50.3778 144.676C50.1429 144.562 49.8494 144.506 49.4971 144.506C49.016 144.506 48.6145 144.614 48.2926 144.83C47.9706 145.042 47.8096 145.316 47.8096 145.653C47.8096 145.945 47.9176 146.18 48.1335 146.358C48.3494 146.536 48.6979 146.682 49.1789 146.795L50.5653 147.114C51.3683 147.299 51.9668 147.585 52.3607 147.972C52.7547 148.358 52.9516 148.86 52.9516 149.477C52.9516 150 52.8001 150.466 52.4971 150.875C52.1979 151.28 51.7793 151.598 51.2414 151.83C50.7073 152.061 50.088 152.176 49.3835 152.176C48.4062 152.176 47.6088 151.968 46.9914 151.551C46.374 151.131 45.9952 150.534 45.8551 149.761L47.4971 149.511C47.5994 149.939 47.8096 150.263 48.1278 150.483C48.446 150.699 48.8607 150.807 49.3721 150.807C49.9289 150.807 50.374 150.691 50.7073 150.46C51.0407 150.225 51.2073 149.939 51.2073 149.602C51.2073 149.33 51.1051 149.1 50.9005 148.915C50.6998 148.729 50.391 148.589 49.9744 148.494L48.4971 148.17C47.6827 147.985 47.0804 147.689 46.6903 147.284C46.3039 146.879 46.1107 146.366 46.1107 145.744C46.1107 145.229 46.2547 144.778 46.5426 144.392C46.8304 144.006 47.2282 143.705 47.7357 143.489C48.2433 143.269 48.8248 143.159 49.4801 143.159C50.4232 143.159 51.1657 143.364 51.7073 143.773C52.249 144.178 52.607 144.722 52.7812 145.403Z" fill="#1F2937"/>
<path d="M522.979 151V149.886L526.425 146.317C526.793 145.929 527.096 145.589 527.335 145.298C527.576 145.003 527.757 144.723 527.876 144.457C527.996 144.192 528.055 143.911 528.055 143.612C528.055 143.274 527.976 142.982 527.817 142.737C527.658 142.489 527.441 142.298 527.165 142.165C526.89 142.03 526.58 141.962 526.236 141.962C525.871 141.962 525.553 142.036 525.281 142.185C525.009 142.335 524.801 142.545 524.655 142.817C524.509 143.089 524.436 143.407 524.436 143.771H522.969C522.969 143.152 523.112 142.61 523.397 142.146C523.682 141.682 524.073 141.322 524.57 141.067C525.067 140.808 525.633 140.679 526.266 140.679C526.905 140.679 527.469 140.807 527.956 141.062C528.446 141.314 528.829 141.658 529.104 142.096C529.379 142.53 529.517 143.021 529.517 143.567C529.517 143.945 529.446 144.315 529.303 144.676C529.164 145.037 528.92 145.44 528.572 145.884C528.224 146.325 527.741 146.86 527.121 147.49L525.097 149.608V149.683H529.681V151H522.979ZM535.18 151.169C534.395 151.166 533.723 150.959 533.167 150.548C532.61 150.137 532.184 149.538 531.889 148.753C531.594 147.967 531.446 147.021 531.446 145.914C531.446 144.81 531.594 143.867 531.889 143.085C532.187 142.303 532.615 141.706 533.172 141.295C533.732 140.884 534.401 140.679 535.18 140.679C535.959 140.679 536.627 140.886 537.184 141.3C537.74 141.711 538.166 142.308 538.461 143.09C538.76 143.869 538.909 144.81 538.909 145.914C538.909 147.024 538.761 147.972 538.466 148.758C538.171 149.54 537.745 150.138 537.189 150.553C536.632 150.964 535.962 151.169 535.18 151.169ZM535.18 149.842C535.869 149.842 536.408 149.505 536.796 148.832C537.187 148.16 537.382 147.187 537.382 145.914C537.382 145.069 537.293 144.355 537.114 143.771C536.938 143.185 536.685 142.741 536.353 142.439C536.025 142.134 535.634 141.982 535.18 141.982C534.494 141.982 533.955 142.32 533.564 142.996C533.173 143.672 532.976 144.645 532.973 145.914C532.973 146.763 533.061 147.48 533.236 148.067C533.415 148.65 533.669 149.093 533.997 149.394C534.325 149.692 534.719 149.842 535.18 149.842ZM546.057 149.091V148.554C546.057 148.17 546.137 147.818 546.296 147.5C546.458 147.179 546.693 146.922 547.002 146.729C547.313 146.534 547.689 146.436 548.13 146.436C548.581 146.436 548.959 146.532 549.264 146.724C549.569 146.917 549.799 147.174 549.955 147.495C550.114 147.817 550.193 148.17 550.193 148.554V149.091C550.193 149.475 550.114 149.828 549.955 150.15C549.796 150.468 549.562 150.725 549.254 150.92C548.949 151.113 548.574 151.209 548.13 151.209C547.683 151.209 547.305 151.113 546.997 150.92C546.688 150.725 546.455 150.468 546.296 150.15C546.137 149.828 546.057 149.475 546.057 149.091ZM547.215 148.554V149.091C547.215 149.376 547.283 149.634 547.419 149.866C547.555 150.098 547.792 150.214 548.13 150.214C548.465 150.214 548.699 150.098 548.831 149.866C548.964 149.634 549.03 149.376 549.03 149.091V148.554C549.03 148.269 548.965 148.01 548.836 147.778C548.71 147.546 548.475 147.43 548.13 147.43C547.799 147.43 547.563 147.546 547.424 147.778C547.285 148.01 547.215 148.269 547.215 148.554ZM540.936 143.264V142.727C540.936 142.343 541.016 141.99 541.175 141.668C541.337 141.347 541.573 141.09 541.881 140.898C542.192 140.705 542.569 140.609 543.009 140.609C543.46 140.609 543.838 140.705 544.143 140.898C544.448 141.09 544.678 141.347 544.834 141.668C544.99 141.99 545.068 142.343 545.068 142.727V143.264C545.068 143.649 544.988 144.002 544.829 144.323C544.673 144.641 544.441 144.898 544.133 145.094C543.828 145.286 543.454 145.382 543.009 145.382C542.559 145.382 542.179 145.286 541.871 145.094C541.566 144.898 541.334 144.641 541.175 144.323C541.016 144.002 540.936 143.649 540.936 143.264ZM542.1 142.727V143.264C542.1 143.549 542.166 143.808 542.299 144.04C542.434 144.272 542.671 144.388 543.009 144.388C543.341 144.388 543.573 144.272 543.706 144.04C543.841 143.808 543.909 143.549 543.909 143.264V142.727C543.909 142.442 543.845 142.184 543.715 141.952C543.586 141.72 543.351 141.604 543.009 141.604C542.678 141.604 542.443 141.72 542.304 141.952C542.168 142.184 542.1 142.442 542.1 142.727ZM541.409 151L548.409 140.818H549.597L542.597 151H541.409Z" fill="#1F2937"/>
<path d="M16 173C16 170.239 18.2386 168 21 168H547C549.761 168 552 170.239 552 173C552 175.761 549.761 178 547 178H21C18.2386 178 16 175.761 16 173Z" fill="#F3F4F6"/>
<path d="M16 173C16 170.239 18.2386 168 21 168H111C113.761 168 116 170.239 116 173C116 175.761 113.761 178 111 178H21C18.2386 178 16 175.761 16 173Z" fill="#4C956C"/>
<path d="M26.6705 200.364V212H25.0568L19.142 203.466H19.0341V212H17.2784V200.364H18.9034L24.8239 208.909H24.9318V200.364H26.6705ZM32.9365 212.176C32.0767 212.176 31.3362 211.992 30.7149 211.625C30.0975 211.254 29.6202 210.733 29.2831 210.062C28.9498 209.388 28.7831 208.598 28.7831 207.693C28.7831 206.799 28.9498 206.011 29.2831 205.33C29.6202 204.648 30.0899 204.116 30.6922 203.733C31.2983 203.35 32.0066 203.159 32.8172 203.159C33.3096 203.159 33.7869 203.241 34.249 203.403C34.7112 203.566 35.1259 203.822 35.4934 204.17C35.8608 204.519 36.1505 204.972 36.3627 205.528C36.5748 206.081 36.6809 206.754 36.6809 207.545V208.148H29.7434V206.875H35.0161C35.0161 206.428 34.9252 206.032 34.7434 205.688C34.5615 205.339 34.3059 205.064 33.9763 204.864C33.6505 204.663 33.268 204.562 32.8286 204.562C32.3513 204.562 31.9346 204.68 31.5786 204.915C31.2263 205.146 30.9536 205.449 30.7604 205.824C30.571 206.195 30.4763 206.598 30.4763 207.034V208.028C30.4763 208.612 30.5786 209.108 30.7831 209.517C30.9915 209.926 31.2812 210.239 31.6524 210.455C32.0237 210.667 32.4574 210.773 32.9536 210.773C33.2755 210.773 33.5691 210.727 33.8343 210.636C34.0994 210.542 34.3286 210.402 34.5218 210.216C34.7149 210.03 34.8627 209.801 34.9649 209.528L36.5729 209.818C36.4441 210.292 36.213 210.706 35.8797 211.062C35.5502 211.415 35.1354 211.689 34.6354 211.886C34.1392 212.08 33.5729 212.176 32.9365 212.176ZM42.7197 203.273V204.636H37.9526V203.273H42.7197ZM39.231 201.182H40.9299V209.438C40.9299 209.767 40.9791 210.015 41.0776 210.182C41.1761 210.345 41.303 210.456 41.4583 210.517C41.6174 210.574 41.7897 210.602 41.9753 210.602C42.1117 210.602 42.231 210.593 42.3333 210.574C42.4356 210.555 42.5151 210.54 42.5719 210.528L42.8787 211.932C42.7803 211.97 42.6401 212.008 42.4583 212.045C42.2765 212.087 42.0492 212.11 41.7765 212.114C41.3295 212.121 40.9128 212.042 40.5265 211.875C40.1401 211.708 39.8276 211.451 39.589 211.102C39.3503 210.754 39.231 210.316 39.231 209.79V201.182ZM44.6789 212V203.273H46.321V204.659H46.4119C46.571 204.189 46.8513 203.82 47.2528 203.551C47.6581 203.278 48.1164 203.142 48.6278 203.142C48.7338 203.142 48.8588 203.146 49.0028 203.153C49.1505 203.161 49.266 203.17 49.3494 203.182V204.807C49.2812 204.788 49.16 204.767 48.9857 204.744C48.8115 204.718 48.6373 204.705 48.463 204.705C48.0615 204.705 47.7035 204.79 47.3891 204.96C47.0785 205.127 46.8323 205.36 46.6505 205.659C46.4687 205.955 46.3778 206.292 46.3778 206.67V212H44.6789ZM53.3612 212.193C52.8082 212.193 52.3082 212.091 51.8612 211.886C51.4142 211.678 51.0601 211.377 50.7987 210.983C50.5411 210.589 50.4123 210.106 50.4123 209.534C50.4123 209.042 50.507 208.636 50.6964 208.318C50.8858 208 51.1415 207.748 51.4635 207.562C51.7854 207.377 52.1453 207.237 52.543 207.142C52.9407 207.047 53.346 206.975 53.7589 206.926C54.2816 206.866 54.7059 206.816 55.0316 206.778C55.3574 206.737 55.5941 206.67 55.7419 206.58C55.8896 206.489 55.9635 206.341 55.9635 206.136V206.097C55.9635 205.6 55.8233 205.216 55.543 204.943C55.2665 204.67 54.8536 204.534 54.3044 204.534C53.7324 204.534 53.2816 204.661 52.9521 204.915C52.6263 205.165 52.401 205.443 52.276 205.75L50.6794 205.386C50.8688 204.856 51.1453 204.428 51.5089 204.102C51.8763 203.773 52.2987 203.534 52.776 203.386C53.2532 203.235 53.7551 203.159 54.2816 203.159C54.6301 203.159 54.9995 203.201 55.3896 203.284C55.7835 203.364 56.151 203.511 56.4919 203.727C56.8366 203.943 57.1188 204.252 57.3385 204.653C57.5582 205.051 57.668 205.568 57.668 206.205V212H56.0089V210.807H55.9407C55.8309 211.027 55.6661 211.242 55.4464 211.455C55.2267 211.667 54.9445 211.843 54.5998 211.983C54.2551 212.123 53.8423 212.193 53.3612 212.193ZM53.7305 210.83C54.2002 210.83 54.6017 210.737 54.9351 210.551C55.2722 210.366 55.5279 210.123 55.7021 209.824C55.8801 209.521 55.9691 209.197 55.9691 208.852V207.727C55.9085 207.788 55.7911 207.845 55.6169 207.898C55.4464 207.947 55.2513 207.991 55.0316 208.028C54.812 208.062 54.5979 208.095 54.3896 208.125C54.1813 208.152 54.007 208.174 53.8669 208.193C53.5373 208.235 53.2362 208.305 52.9635 208.403C52.6945 208.502 52.4786 208.644 52.3157 208.83C52.1566 209.011 52.0771 209.254 52.0771 209.557C52.0771 209.977 52.2324 210.295 52.543 210.511C52.8536 210.723 53.2495 210.83 53.7305 210.83ZM61.7097 200.364V212H60.0108V200.364H61.7097Z" fill="#1F2937"/>
<path d="M528.842 200.818V211H527.301V202.359H527.241L524.805 203.95V202.479L527.346 200.818H528.842ZM535.211 211.169C534.426 211.166 533.755 210.959 533.198 210.548C532.641 210.137 532.215 209.538 531.92 208.753C531.625 207.967 531.478 207.021 531.478 205.914C531.478 204.81 531.625 203.867 531.92 203.085C532.218 202.303 532.646 201.706 533.203 201.295C533.763 200.884 534.432 200.679 535.211 200.679C535.99 200.679 536.658 200.886 537.215 201.3C537.772 201.711 538.198 202.308 538.493 203.09C538.791 203.869 538.94 204.81 538.94 205.914C538.94 207.024 538.793 207.972 538.498 208.758C538.203 209.54 537.777 210.138 537.22 210.553C536.663 210.964 535.994 211.169 535.211 211.169ZM535.211 209.842C535.901 209.842 536.439 209.505 536.827 208.832C537.218 208.16 537.414 207.187 537.414 205.914C537.414 205.069 537.324 204.355 537.145 203.771C536.97 203.185 536.716 202.741 536.385 202.439C536.057 202.134 535.665 201.982 535.211 201.982C534.525 201.982 533.987 202.32 533.596 202.996C533.204 203.672 533.007 204.645 533.004 205.914C533.004 206.763 533.092 207.48 533.267 208.067C533.446 208.65 533.7 209.093 534.028 209.394C534.356 209.692 534.751 209.842 535.211 209.842ZM546.088 209.091V208.554C546.088 208.17 546.168 207.818 546.327 207.5C546.489 207.179 546.725 206.922 547.033 206.729C547.344 206.534 547.721 206.436 548.161 206.436C548.612 206.436 548.99 206.532 549.295 206.724C549.6 206.917 549.83 207.174 549.986 207.495C550.145 207.817 550.225 208.17 550.225 208.554V209.091C550.225 209.475 550.145 209.828 549.986 210.15C549.827 210.468 549.593 210.725 549.285 210.92C548.98 211.113 548.606 211.209 548.161 211.209C547.714 211.209 547.336 211.113 547.028 210.92C546.72 210.725 546.486 210.468 546.327 210.15C546.168 209.828 546.088 209.475 546.088 209.091ZM547.247 208.554V209.091C547.247 209.376 547.315 209.634 547.451 209.866C547.586 210.098 547.823 210.214 548.161 210.214C548.496 210.214 548.73 210.098 548.862 209.866C548.995 209.634 549.061 209.376 549.061 209.091V208.554C549.061 208.269 548.997 208.01 548.867 207.778C548.742 207.546 548.506 207.43 548.161 207.43C547.83 207.43 547.595 207.546 547.456 207.778C547.316 208.01 547.247 208.269 547.247 208.554ZM540.968 203.264V202.727C540.968 202.343 541.047 201.99 541.206 201.668C541.369 201.347 541.604 201.09 541.912 200.898C542.224 200.705 542.6 200.609 543.041 200.609C543.492 200.609 543.869 200.705 544.174 200.898C544.479 201.09 544.71 201.347 544.865 201.668C545.021 201.99 545.099 202.343 545.099 202.727V203.264C545.099 203.649 545.019 204.002 544.86 204.323C544.705 204.641 544.473 204.898 544.164 205.094C543.859 205.286 543.485 205.382 543.041 205.382C542.59 205.382 542.21 205.286 541.902 205.094C541.597 204.898 541.365 204.641 541.206 204.323C541.047 204.002 540.968 203.649 540.968 203.264ZM542.131 202.727V203.264C542.131 203.549 542.197 203.808 542.33 204.04C542.466 204.272 542.703 204.388 543.041 204.388C543.372 204.388 543.604 204.272 543.737 204.04C543.873 203.808 543.941 203.549 543.941 203.264V202.727C543.941 202.442 543.876 202.184 543.747 201.952C543.617 201.72 543.382 201.604 543.041 201.604C542.709 201.604 542.474 201.72 542.335 201.952C542.199 202.184 542.131 202.442 542.131 202.727ZM541.44 211L548.44 200.818H549.628L542.628 211H541.44Z" fill="#1F2937"/>
<path d="M16 233C16 230.239 18.2386 228 21 228H547C549.761 228 552 230.239 552 233C552 235.761 549.761 238 547 238H21C18.2386 238 16 235.761 16 233Z" fill="#F3F4F6"/>
<path d="M16 233C16 230.239 18.2386 228 21 228H61C63.7614 228 66 230.239 66 233C66 235.761 63.7614 238 61 238H21C18.2386 238 16 235.761 16 233Z" fill="#4C956C"/>
<path d="M16.7045 261.875V260.364H25.7102V261.875H22.0795V272H20.3295V261.875H16.7045ZM27.6439 272V263.273H29.3428V272H27.6439ZM28.5019 261.926C28.2064 261.926 27.9526 261.828 27.7405 261.631C27.5322 261.43 27.428 261.191 27.428 260.915C27.428 260.634 27.5322 260.396 27.7405 260.199C27.9526 259.998 28.2064 259.898 28.5019 259.898C28.7973 259.898 29.0492 259.998 29.2576 260.199C29.4697 260.396 29.5757 260.634 29.5757 260.915C29.5757 261.191 29.4697 261.43 29.2576 261.631C29.0492 261.828 28.7973 261.926 28.5019 261.926ZM34.9753 272.17C34.2708 272.17 33.642 271.991 33.089 271.631C32.5397 271.267 32.1079 270.75 31.7935 270.08C31.4829 269.405 31.3276 268.597 31.3276 267.653C31.3276 266.71 31.4848 265.903 31.7992 265.233C32.1174 264.562 32.553 264.049 33.106 263.693C33.6591 263.337 34.2859 263.159 34.9867 263.159C35.5284 263.159 35.964 263.25 36.2935 263.432C36.6269 263.61 36.8844 263.818 37.0662 264.057C37.2519 264.295 37.3958 264.506 37.4981 264.688H37.6003V260.364H39.2992V272H37.6401V270.642H37.4981C37.3958 270.828 37.2481 271.04 37.0549 271.278C36.8655 271.517 36.6041 271.725 36.2708 271.903C35.9375 272.081 35.5056 272.17 34.9753 272.17ZM35.3503 270.722C35.839 270.722 36.2519 270.593 36.589 270.335C36.9299 270.074 37.1875 269.712 37.3617 269.25C37.5397 268.788 37.6287 268.25 37.6287 267.636C37.6287 267.03 37.5416 266.5 37.3674 266.045C37.1931 265.591 36.9375 265.237 36.6003 264.983C36.2632 264.729 35.8466 264.602 35.3503 264.602C34.839 264.602 34.4128 264.735 34.0719 265C33.731 265.265 33.4734 265.627 33.2992 266.085C33.1287 266.544 33.0435 267.061 33.0435 267.636C33.0435 268.22 33.1306 268.744 33.3049 269.21C33.4791 269.676 33.7367 270.045 34.0776 270.318C34.4223 270.587 34.8466 270.722 35.3503 270.722ZM44.3437 272.193C43.7907 272.193 43.2907 272.091 42.8437 271.886C42.3967 271.678 42.0426 271.377 41.7812 270.983C41.5236 270.589 41.3948 270.106 41.3948 269.534C41.3948 269.042 41.4895 268.636 41.6789 268.318C41.8683 268 42.124 267.748 42.446 267.562C42.7679 267.377 43.1278 267.237 43.5255 267.142C43.9232 267.047 44.3285 266.975 44.7414 266.926C45.2641 266.866 45.6884 266.816 46.0141 266.778C46.3399 266.737 46.5766 266.67 46.7244 266.58C46.8721 266.489 46.946 266.341 46.946 266.136V266.097C46.946 265.6 46.8058 265.216 46.5255 264.943C46.249 264.67 45.8361 264.534 45.2869 264.534C44.7149 264.534 44.2641 264.661 43.9346 264.915C43.6088 265.165 43.3835 265.443 43.2585 265.75L41.6619 265.386C41.8513 264.856 42.1278 264.428 42.4914 264.102C42.8588 263.773 43.2812 263.534 43.7585 263.386C44.2357 263.235 44.7376 263.159 45.2641 263.159C45.6126 263.159 45.982 263.201 46.3721 263.284C46.766 263.364 47.1335 263.511 47.4744 263.727C47.8191 263.943 48.1013 264.252 48.321 264.653C48.5407 265.051 48.6505 265.568 48.6505 266.205V272H46.9914V270.807H46.9232C46.8134 271.027 46.6486 271.242 46.4289 271.455C46.2092 271.667 45.927 271.843 45.5823 271.983C45.2376 272.123 44.8248 272.193 44.3437 272.193ZM44.713 270.83C45.1827 270.83 45.5842 270.737 45.9176 270.551C46.2547 270.366 46.5104 270.123 46.6846 269.824C46.8626 269.521 46.9516 269.197 46.9516 268.852V267.727C46.891 267.788 46.7736 267.845 46.5994 267.898C46.4289 267.947 46.2338 267.991 46.0141 268.028C45.7945 268.062 45.5804 268.095 45.3721 268.125C45.1638 268.152 44.9895 268.174 44.8494 268.193C44.5198 268.235 44.2187 268.305 43.946 268.403C43.677 268.502 43.4611 268.644 43.2982 268.83C43.1391 269.011 43.0596 269.254 43.0596 269.557C43.0596 269.977 43.2149 270.295 43.5255 270.511C43.8361 270.723 44.232 270.83 44.713 270.83ZM52.5558 269.04L52.5444 266.966H52.8399L56.3172 263.273H58.3512L54.3853 267.477H54.1183L52.5558 269.04ZM50.9933 272V260.364H52.6922V272H50.9933ZM56.5047 272L53.3797 267.852L54.5501 266.665L58.5899 272H56.5047ZM64.4303 272V260.364H68.578C69.4833 260.364 70.2333 260.528 70.828 260.858C71.4227 261.187 71.8678 261.638 72.1632 262.21C72.4587 262.778 72.6064 263.419 72.6064 264.131C72.6064 264.847 72.4568 265.491 72.1576 266.062C71.8621 266.631 71.4151 267.081 70.8166 267.415C70.222 267.744 69.4738 267.909 68.5723 267.909H65.7201V266.42H68.4132C68.9852 266.42 69.4492 266.322 69.8053 266.125C70.1613 265.924 70.4227 265.652 70.5894 265.307C70.756 264.962 70.8394 264.57 70.8394 264.131C70.8394 263.691 70.756 263.301 70.5894 262.96C70.4227 262.619 70.1595 262.352 69.7996 262.159C69.4435 261.966 68.9738 261.869 68.3905 261.869H66.186V272H64.4303ZM80.1367 268.381V263.273H81.8413V272H80.1708V270.489H80.0799C79.8791 270.955 79.5572 271.343 79.114 271.653C78.6746 271.96 78.1272 272.114 77.4719 272.114C76.9113 272.114 76.4151 271.991 75.9833 271.744C75.5553 271.494 75.2181 271.125 74.9719 270.636C74.7295 270.148 74.6083 269.544 74.6083 268.824V263.273H76.3072V268.619C76.3072 269.214 76.4719 269.687 76.8015 270.04C77.131 270.392 77.5591 270.568 78.0856 270.568C78.4038 270.568 78.72 270.489 79.0344 270.33C79.3526 270.17 79.6159 269.93 79.8242 269.608C80.0363 269.286 80.1405 268.877 80.1367 268.381ZM86.7437 272.193C86.1907 272.193 85.6907 272.091 85.2437 271.886C84.7967 271.678 84.4426 271.377 84.1812 270.983C83.9236 270.589 83.7948 270.106 83.7948 269.534C83.7948 269.042 83.8895 268.636 84.0789 268.318C84.2683 268 84.524 267.748 84.846 267.562C85.1679 267.377 85.5278 267.237 85.9255 267.142C86.3232 267.047 86.7285 266.975 87.1414 266.926C87.6641 266.866 88.0884 266.816 88.4141 266.778C88.7399 266.737 88.9766 266.67 89.1244 266.58C89.2721 266.489 89.346 266.341 89.346 266.136V266.097C89.346 265.6 89.2058 265.216 88.9255 264.943C88.649 264.67 88.2361 264.534 87.6869 264.534C87.1149 264.534 86.6641 264.661 86.3346 264.915C86.0088 265.165 85.7835 265.443 85.6585 265.75L84.0619 265.386C84.2513 264.856 84.5278 264.428 84.8914 264.102C85.2588 263.773 85.6812 263.534 86.1585 263.386C86.6357 263.235 87.1376 263.159 87.6641 263.159C88.0126 263.159 88.382 263.201 88.7721 263.284C89.166 263.364 89.5335 263.511 89.8744 263.727C90.2191 263.943 90.5013 264.252 90.721 264.653C90.9407 265.051 91.0505 265.568 91.0505 266.205V272H89.3914V270.807H89.3232C89.2134 271.027 89.0486 271.242 88.8289 271.455C88.6092 271.667 88.327 271.843 87.9823 271.983C87.6376 272.123 87.2248 272.193 86.7437 272.193ZM87.113 270.83C87.5827 270.83 87.9842 270.737 88.3176 270.551C88.6547 270.366 88.9104 270.123 89.0846 269.824C89.2626 269.521 89.3516 269.197 89.3516 268.852V267.727C89.291 267.788 89.1736 267.845 88.9994 267.898C88.8289 267.947 88.6338 267.991 88.4141 268.028C88.1945 268.062 87.9804 268.095 87.7721 268.125C87.5638 268.152 87.3895 268.174 87.2494 268.193C86.9198 268.235 86.6187 268.305 86.346 268.403C86.077 268.502 85.8611 268.644 85.6982 268.83C85.5391 269.011 85.4596 269.254 85.4596 269.557C85.4596 269.977 85.6149 270.295 85.9255 270.511C86.2361 270.723 86.632 270.83 87.113 270.83ZM99.9331 265.403L98.3933 265.676C98.3289 265.479 98.2266 265.292 98.0865 265.114C97.9501 264.936 97.7645 264.79 97.5297 264.676C97.2948 264.562 97.0013 264.506 96.649 264.506C96.1679 264.506 95.7664 264.614 95.4444 264.83C95.1225 265.042 94.9615 265.316 94.9615 265.653C94.9615 265.945 95.0694 266.18 95.2853 266.358C95.5013 266.536 95.8497 266.682 96.3308 266.795L97.7172 267.114C98.5202 267.299 99.1187 267.585 99.5126 267.972C99.9066 268.358 100.104 268.86 100.104 269.477C100.104 270 99.952 270.466 99.649 270.875C99.3497 271.28 98.9312 271.598 98.3933 271.83C97.8592 272.061 97.2399 272.176 96.5353 272.176C95.5581 272.176 94.7607 271.968 94.1433 271.551C93.5259 271.131 93.1471 270.534 93.0069 269.761L94.649 269.511C94.7513 269.939 94.9615 270.263 95.2797 270.483C95.5978 270.699 96.0126 270.807 96.524 270.807C97.0808 270.807 97.5259 270.691 97.8592 270.46C98.1925 270.225 98.3592 269.939 98.3592 269.602C98.3592 269.33 98.2569 269.1 98.0524 268.915C97.8516 268.729 97.5429 268.589 97.1263 268.494L95.649 268.17C94.8346 267.985 94.2323 267.689 93.8422 267.284C93.4558 266.879 93.2626 266.366 93.2626 265.744C93.2626 265.229 93.4066 264.778 93.6944 264.392C93.9823 264.006 94.38 263.705 94.8876 263.489C95.3952 263.269 95.9766 263.159 96.6319 263.159C97.5751 263.159 98.3175 263.364 98.8592 263.773C99.4009 264.178 99.7588 264.722 99.9331 265.403Z" fill="#1F2937"/>
<path d="M528.842 260.818V271H527.301V262.359H527.241L524.805 263.95V262.479L527.346 260.818H528.842ZM535.211 271.169C534.426 271.166 533.755 270.959 533.198 270.548C532.641 270.137 532.215 269.538 531.92 268.753C531.625 267.967 531.478 267.021 531.478 265.914C531.478 264.81 531.625 263.867 531.92 263.085C532.218 262.303 532.646 261.706 533.203 261.295C533.763 260.884 534.432 260.679 535.211 260.679C535.99 260.679 536.658 260.886 537.215 261.3C537.772 261.711 538.198 262.308 538.493 263.09C538.791 263.869 538.94 264.81 538.94 265.914C538.94 267.024 538.793 267.972 538.498 268.758C538.203 269.54 537.777 270.138 537.22 270.553C536.663 270.964 535.994 271.169 535.211 271.169ZM535.211 269.842C535.901 269.842 536.439 269.505 536.827 268.832C537.218 268.16 537.414 267.187 537.414 265.914C537.414 265.069 537.324 264.355 537.145 263.771C536.97 263.185 536.716 262.741 536.385 262.439C536.057 262.134 535.665 261.982 535.211 261.982C534.525 261.982 533.987 262.32 533.596 262.996C533.204 263.672 533.007 264.645 533.004 265.914C533.004 266.763 533.092 267.48 533.267 268.067C533.446 268.65 533.7 269.093 534.028 269.394C534.356 269.692 534.751 269.842 535.211 269.842ZM546.088 269.091V268.554C546.088 268.17 546.168 267.818 546.327 267.5C546.489 267.179 546.725 266.922 547.033 266.729C547.344 266.534 547.721 266.436 548.161 266.436C548.612 266.436 548.99 266.532 549.295 266.724C549.6 266.917 549.83 267.174 549.986 267.495C550.145 267.817 550.225 268.17 550.225 268.554V269.091C550.225 269.475 550.145 269.828 549.986 270.15C549.827 270.468 549.593 270.725 549.285 270.92C548.98 271.113 548.606 271.209 548.161 271.209C547.714 271.209 547.336 271.113 547.028 270.92C546.72 270.725 546.486 270.468 546.327 270.15C546.168 269.828 546.088 269.475 546.088 269.091ZM547.247 268.554V269.091C547.247 269.376 547.315 269.634 547.451 269.866C547.586 270.098 547.823 270.214 548.161 270.214C548.496 270.214 548.73 270.098 548.862 269.866C548.995 269.634 549.061 269.376 549.061 269.091V268.554C549.061 268.269 548.997 268.01 548.867 267.778C548.742 267.546 548.506 267.43 548.161 267.43C547.83 267.43 547.595 267.546 547.456 267.778C547.316 268.01 547.247 268.269 547.247 268.554ZM540.968 263.264V262.727C540.968 262.343 541.047 261.99 541.206 261.668C541.369 261.347 541.604 261.09 541.912 260.898C542.224 260.705 542.6 260.609 543.041 260.609C543.492 260.609 543.869 260.705 544.174 260.898C544.479 261.09 544.71 261.347 544.865 261.668C545.021 261.99 545.099 262.343 545.099 262.727V263.264C545.099 263.649 545.019 264.002 544.86 264.323C544.705 264.641 544.473 264.898 544.164 265.094C543.859 265.286 543.485 265.382 543.041 265.382C542.59 265.382 542.21 265.286 541.902 265.094C541.597 264.898 541.365 264.641 541.206 264.323C541.047 264.002 540.968 263.649 540.968 263.264ZM542.131 262.727V263.264C542.131 263.549 542.197 263.808 542.33 264.04C542.466 264.272 542.703 264.388 543.041 264.388C543.372 264.388 543.604 264.272 543.737 264.04C543.873 263.808 543.941 263.549 543.941 263.264V262.727C543.941 262.442 543.876 262.184 543.747 261.952C543.617 261.72 543.382 261.604 543.041 261.604C542.709 261.604 542.474 261.72 542.335 261.952C542.199 262.184 542.131 262.442 542.131 262.727ZM541.44 271L548.44 260.818H549.628L542.628 271H541.44Z" fill="#1F2937"/>
<path d="M16 293C16 290.239 18.2386 288 21 288H547C549.761 288 552 290.239 552 293C552 295.761 549.761 298 547 298H21C18.2386 298 16 295.761 16 293Z" fill="#F3F4F6"/>
<path d="M16 293C16 290.239 18.2386 288 21 288H61C63.7614 288 66 290.239 66 293C66 295.761 63.7614 298 61 298H21C18.2386 298 16 295.761 16 293Z" fill="#4C956C"/>
<path d="M23.625 323.42C23.5644 322.883 23.3144 322.466 22.875 322.17C22.4356 321.871 21.8826 321.722 21.2159 321.722C20.7386 321.722 20.3258 321.797 19.9773 321.949C19.6288 322.097 19.358 322.301 19.1648 322.562C18.9754 322.82 18.8807 323.114 18.8807 323.443C18.8807 323.72 18.9451 323.958 19.0739 324.159C19.2064 324.36 19.3788 324.528 19.5909 324.665C19.8068 324.797 20.0379 324.909 20.2841 325C20.5303 325.087 20.767 325.159 20.9943 325.216L22.1307 325.511C22.5019 325.602 22.8826 325.725 23.2727 325.881C23.6629 326.036 24.0246 326.241 24.358 326.494C24.6913 326.748 24.9602 327.062 25.1648 327.438C25.3731 327.812 25.4773 328.261 25.4773 328.784C25.4773 329.443 25.3068 330.028 24.9659 330.54C24.6288 331.051 24.1383 331.455 23.4943 331.75C22.8542 332.045 22.0795 332.193 21.1705 332.193C20.2992 332.193 19.5455 332.055 18.9091 331.778C18.2727 331.502 17.7746 331.11 17.4148 330.602C17.0549 330.091 16.8561 329.485 16.8182 328.784H18.5795C18.6136 329.205 18.75 329.555 18.9886 329.835C19.2311 330.112 19.5398 330.318 19.9148 330.455C20.2936 330.587 20.7083 330.653 21.1591 330.653C21.6553 330.653 22.0966 330.576 22.483 330.42C22.8731 330.261 23.1799 330.042 23.4034 329.761C23.6269 329.477 23.7386 329.146 23.7386 328.767C23.7386 328.422 23.6402 328.14 23.4432 327.92C23.25 327.701 22.9867 327.519 22.6534 327.375C22.3239 327.231 21.9508 327.104 21.5341 326.994L20.1591 326.619C19.2273 326.366 18.4886 325.992 17.9432 325.5C17.4015 325.008 17.1307 324.356 17.1307 323.545C17.1307 322.875 17.3125 322.29 17.6761 321.79C18.0398 321.29 18.5322 320.902 19.1534 320.625C19.7746 320.345 20.4754 320.205 21.2557 320.205C22.0436 320.205 22.7386 320.343 23.3409 320.619C23.947 320.896 24.4242 321.277 24.7727 321.761C25.1212 322.242 25.303 322.795 25.3182 323.42H23.625ZM30.0587 332.193C29.5057 332.193 29.0057 332.091 28.5587 331.886C28.1117 331.678 27.7576 331.377 27.4962 330.983C27.2386 330.589 27.1098 330.106 27.1098 329.534C27.1098 329.042 27.2045 328.636 27.3939 328.318C27.5833 328 27.839 327.748 28.161 327.562C28.4829 327.377 28.8428 327.237 29.2405 327.142C29.6382 327.047 30.0435 326.975 30.4564 326.926C30.9791 326.866 31.4034 326.816 31.7291 326.778C32.0549 326.737 32.2916 326.67 32.4394 326.58C32.5871 326.489 32.661 326.341 32.661 326.136V326.097C32.661 325.6 32.5208 325.216 32.2405 324.943C31.964 324.67 31.5511 324.534 31.0019 324.534C30.4299 324.534 29.9791 324.661 29.6496 324.915C29.3238 325.165 29.0985 325.443 28.9735 325.75L27.3769 325.386C27.5663 324.856 27.8428 324.428 28.2064 324.102C28.5738 323.773 28.9962 323.534 29.4735 323.386C29.9507 323.235 30.4526 323.159 30.9791 323.159C31.3276 323.159 31.697 323.201 32.0871 323.284C32.481 323.364 32.8485 323.511 33.1894 323.727C33.5341 323.943 33.8163 324.252 34.036 324.653C34.2557 325.051 34.3655 325.568 34.3655 326.205V332H32.7064V330.807H32.6382C32.5284 331.027 32.3636 331.242 32.1439 331.455C31.9242 331.667 31.642 331.843 31.2973 331.983C30.9526 332.123 30.5398 332.193 30.0587 332.193ZM30.428 330.83C30.8977 330.83 31.2992 330.737 31.6326 330.551C31.9697 330.366 32.2254 330.123 32.3996 329.824C32.5776 329.521 32.6666 329.197 32.6666 328.852V327.727C32.606 327.788 32.4886 327.845 32.3144 327.898C32.1439 327.947 31.9488 327.991 31.7291 328.028C31.5095 328.062 31.2954 328.095 31.0871 328.125C30.8788 328.152 30.7045 328.174 30.5644 328.193C30.2348 328.235 29.9337 328.305 29.661 328.403C29.392 328.502 29.1761 328.644 29.0132 328.83C28.8541 329.011 28.7746 329.254 28.7746 329.557C28.7746 329.977 28.9299 330.295 29.2405 330.511C29.5511 330.723 29.947 330.83 30.428 330.83ZM38.4072 326.818V332H36.7083V323.273H38.339V324.693H38.4469C38.6477 324.231 38.9621 323.86 39.3901 323.58C39.8219 323.299 40.3655 323.159 41.0208 323.159C41.6155 323.159 42.1363 323.284 42.5833 323.534C43.0303 323.78 43.3769 324.148 43.6231 324.636C43.8693 325.125 43.9924 325.729 43.9924 326.449V332H42.2935V326.653C42.2935 326.021 42.1288 325.527 41.7992 325.17C41.4697 324.811 41.017 324.631 40.4412 324.631C40.0473 324.631 39.6969 324.716 39.3901 324.886C39.0871 325.057 38.8466 325.307 38.6685 325.636C38.4943 325.962 38.4072 326.356 38.4072 326.818ZM50.0099 335.455C49.3167 335.455 48.7201 335.364 48.2201 335.182C47.7239 335 47.3186 334.759 47.0042 334.46C46.6898 334.161 46.455 333.833 46.2997 333.477L47.7599 332.875C47.8622 333.042 47.9985 333.218 48.169 333.403C48.3432 333.593 48.5781 333.754 48.8735 333.886C49.1728 334.019 49.5572 334.085 50.0269 334.085C50.6709 334.085 51.2031 333.928 51.6235 333.614C52.044 333.303 52.2542 332.807 52.2542 332.125V330.409H52.1462C52.044 330.595 51.8962 330.801 51.7031 331.028C51.5137 331.256 51.2523 331.453 50.919 331.619C50.5856 331.786 50.1519 331.869 49.6178 331.869C48.9284 331.869 48.3072 331.708 47.7542 331.386C47.205 331.061 46.7694 330.581 46.4474 329.949C46.1292 329.312 45.9701 328.53 45.9701 327.602C45.9701 326.674 46.1273 325.879 46.4417 325.216C46.7599 324.553 47.1955 324.045 47.7485 323.693C48.3016 323.337 48.9284 323.159 49.6292 323.159C50.1709 323.159 50.6084 323.25 50.9417 323.432C51.275 323.61 51.5345 323.818 51.7201 324.057C51.9095 324.295 52.0553 324.506 52.1576 324.688H52.2826V323.273H53.9474V332.193C53.9474 332.943 53.7731 333.559 53.4247 334.04C53.0762 334.521 52.6046 334.877 52.0099 335.108C51.419 335.339 50.7523 335.455 50.0099 335.455ZM49.9928 330.46C50.4815 330.46 50.8944 330.347 51.2315 330.119C51.5724 329.888 51.83 329.559 52.0042 329.131C52.1822 328.699 52.2712 328.182 52.2712 327.58C52.2712 326.992 52.1841 326.475 52.0099 326.028C51.8356 325.581 51.58 325.233 51.2428 324.983C50.9057 324.729 50.4891 324.602 49.9928 324.602C49.4815 324.602 49.0553 324.735 48.7144 325C48.3735 325.261 48.1159 325.617 47.9417 326.068C47.7712 326.519 47.686 327.023 47.686 327.58C47.686 328.152 47.7731 328.653 47.9474 329.085C48.1216 329.517 48.3792 329.854 48.7201 330.097C49.0648 330.339 49.4891 330.46 49.9928 330.46ZM58.8456 332.193C58.2925 332.193 57.7925 332.091 57.3456 331.886C56.8986 331.678 56.5444 331.377 56.2831 330.983C56.0255 330.589 55.8967 330.106 55.8967 329.534C55.8967 329.042 55.9914 328.636 56.1808 328.318C56.3702 328 56.6259 327.748 56.9478 327.562C57.2698 327.377 57.6297 327.237 58.0274 327.142C58.4251 327.047 58.8304 326.975 59.2433 326.926C59.766 326.866 60.1903 326.816 60.516 326.778C60.8418 326.737 61.0785 326.67 61.2262 326.58C61.374 326.489 61.4478 326.341 61.4478 326.136V326.097C61.4478 325.6 61.3077 325.216 61.0274 324.943C60.7509 324.67 60.338 324.534 59.7887 324.534C59.2168 324.534 58.766 324.661 58.4365 324.915C58.1107 325.165 57.8853 325.443 57.7603 325.75L56.1637 325.386C56.3531 324.856 56.6297 324.428 56.9933 324.102C57.3607 323.773 57.7831 323.534 58.2603 323.386C58.7376 323.235 59.2395 323.159 59.766 323.159C60.1145 323.159 60.4838 323.201 60.874 323.284C61.2679 323.364 61.6353 323.511 61.9762 323.727C62.3209 323.943 62.6031 324.252 62.8228 324.653C63.0425 325.051 63.1524 325.568 63.1524 326.205V332H61.4933V330.807H61.4251C61.3153 331.027 61.1505 331.242 60.9308 331.455C60.7111 331.667 60.4289 331.843 60.0842 331.983C59.7395 332.123 59.3266 332.193 58.8456 332.193ZM59.2149 330.83C59.6846 330.83 60.0861 330.737 60.4194 330.551C60.7566 330.366 61.0122 330.123 61.1865 329.824C61.3645 329.521 61.4535 329.197 61.4535 328.852V327.727C61.3929 327.788 61.2755 327.845 61.1012 327.898C60.9308 327.947 60.7357 327.991 60.516 328.028C60.2963 328.062 60.0823 328.095 59.874 328.125C59.6656 328.152 59.4914 328.174 59.3512 328.193C59.0217 328.235 58.7206 328.305 58.4478 328.403C58.1789 328.502 57.963 328.644 57.8001 328.83C57.641 329.011 57.5615 329.254 57.5615 329.557C57.5615 329.977 57.7168 330.295 58.0274 330.511C58.338 330.723 58.7338 330.83 59.2149 330.83ZM69.569 323.273V324.636H64.802V323.273H69.569ZM66.0804 321.182H67.7793V329.438C67.7793 329.767 67.8285 330.015 67.927 330.182C68.0255 330.345 68.1524 330.456 68.3077 330.517C68.4668 330.574 68.6391 330.602 68.8247 330.602C68.9611 330.602 69.0804 330.593 69.1827 330.574C69.2849 330.555 69.3645 330.54 69.4213 330.528L69.7281 331.932C69.6296 331.97 69.4895 332.008 69.3077 332.045C69.1259 332.087 68.8986 332.11 68.6259 332.114C68.1789 332.121 67.7622 332.042 67.3759 331.875C66.9895 331.708 66.677 331.451 66.4384 331.102C66.1997 330.754 66.0804 330.316 66.0804 329.79V321.182ZM75.4052 321.875V320.364H84.4109V321.875H80.7802V332H79.0302V321.875H75.4052ZM86.3445 332V323.273H88.0434V332H86.3445ZM87.2025 321.926C86.907 321.926 86.6533 321.828 86.4411 321.631C86.2328 321.43 86.1286 321.191 86.1286 320.915C86.1286 320.634 86.2328 320.396 86.4411 320.199C86.6533 319.998 86.907 319.898 87.2025 319.898C87.498 319.898 87.7498 319.998 87.9582 320.199C88.1703 320.396 88.2764 320.634 88.2764 320.915C88.2764 321.191 88.1703 321.43 87.9582 321.631C87.7498 321.828 87.498 321.926 87.2025 321.926ZM93.676 332.17C92.9714 332.17 92.3426 331.991 91.7896 331.631C91.2404 331.267 90.8085 330.75 90.4941 330.08C90.1835 329.405 90.0282 328.597 90.0282 327.653C90.0282 326.71 90.1854 325.903 90.4998 325.233C90.818 324.562 91.2536 324.049 91.8066 323.693C92.3597 323.337 92.9866 323.159 93.6873 323.159C94.229 323.159 94.6646 323.25 94.9941 323.432C95.3275 323.61 95.5851 323.818 95.7669 324.057C95.9525 324.295 96.0964 324.506 96.1987 324.688H96.301V320.364H97.9998V332H96.3407V330.642H96.1987C96.0964 330.828 95.9487 331.04 95.7555 331.278C95.5661 331.517 95.3048 331.725 94.9714 331.903C94.6381 332.081 94.2063 332.17 93.676 332.17ZM94.051 330.722C94.5396 330.722 94.9525 330.593 95.2896 330.335C95.6305 330.074 95.8881 329.712 96.0623 329.25C96.2404 328.788 96.3294 328.25 96.3294 327.636C96.3294 327.03 96.2423 326.5 96.068 326.045C95.8938 325.591 95.6381 325.237 95.301 324.983C94.9638 324.729 94.5472 324.602 94.051 324.602C93.5396 324.602 93.1135 324.735 92.7726 325C92.4316 325.265 92.1741 325.627 91.9998 326.085C91.8294 326.544 91.7441 327.061 91.7441 327.636C91.7441 328.22 91.8313 328.744 92.0055 329.21C92.1798 329.676 92.4373 330.045 92.7782 330.318C93.1229 330.587 93.5472 330.722 94.051 330.722ZM103.044 332.193C102.491 332.193 101.991 332.091 101.544 331.886C101.097 331.678 100.743 331.377 100.482 330.983C100.224 330.589 100.095 330.106 100.095 329.534C100.095 329.042 100.19 328.636 100.38 328.318C100.569 328 100.825 327.748 101.147 327.562C101.469 327.377 101.828 327.237 102.226 327.142C102.624 327.047 103.029 326.975 103.442 326.926C103.965 326.866 104.389 326.816 104.715 326.778C105.041 326.737 105.277 326.67 105.425 326.58C105.573 326.489 105.647 326.341 105.647 326.136V326.097C105.647 325.6 105.506 325.216 105.226 324.943C104.95 324.67 104.537 324.534 103.988 324.534C103.416 324.534 102.965 324.661 102.635 324.915C102.309 325.165 102.084 325.443 101.959 325.75L100.363 325.386C100.552 324.856 100.828 324.428 101.192 324.102C101.559 323.773 101.982 323.534 102.459 323.386C102.936 323.235 103.438 323.159 103.965 323.159C104.313 323.159 104.683 323.201 105.073 323.284C105.467 323.364 105.834 323.511 106.175 323.727C106.52 323.943 106.802 324.252 107.022 324.653C107.241 325.051 107.351 325.568 107.351 326.205V332H105.692V330.807H105.624C105.514 331.027 105.349 331.242 105.13 331.455C104.91 331.667 104.628 331.843 104.283 331.983C103.938 332.123 103.525 332.193 103.044 332.193ZM103.414 330.83C103.883 330.83 104.285 330.737 104.618 330.551C104.955 330.366 105.211 330.123 105.385 329.824C105.563 329.521 105.652 329.197 105.652 328.852V327.727C105.592 327.788 105.474 327.845 105.3 327.898C105.13 327.947 104.934 327.991 104.715 328.028C104.495 328.062 104.281 328.095 104.073 328.125C103.864 328.152 103.69 328.174 103.55 328.193C103.22 328.235 102.919 328.305 102.647 328.403C102.378 328.502 102.162 328.644 101.999 328.83C101.84 329.011 101.76 329.254 101.76 329.557C101.76 329.977 101.916 330.295 102.226 330.511C102.537 330.723 102.933 330.83 103.414 330.83ZM111.256 329.04L111.245 326.966H111.541L115.018 323.273H117.052L113.086 327.477H112.819L111.256 329.04ZM109.694 332V320.364H111.393V332H109.694ZM115.205 332L112.08 327.852L113.251 326.665L117.291 332H115.205ZM123.131 332V320.364H127.279C128.184 320.364 128.934 320.528 129.529 320.858C130.123 321.187 130.568 321.638 130.864 322.21C131.159 322.778 131.307 323.419 131.307 324.131C131.307 324.847 131.157 325.491 130.858 326.062C130.563 326.631 130.116 327.081 129.517 327.415C128.923 327.744 128.174 327.909 127.273 327.909H124.421V326.42H127.114C127.686 326.42 128.15 326.322 128.506 326.125C128.862 325.924 129.123 325.652 129.29 325.307C129.457 324.962 129.54 324.57 129.54 324.131C129.54 323.691 129.457 323.301 129.29 322.96C129.123 322.619 128.86 322.352 128.5 322.159C128.144 321.966 127.674 321.869 127.091 321.869H124.887V332H123.131ZM138.837 328.381V323.273H140.542V332H138.871V330.489H138.781C138.58 330.955 138.258 331.343 137.815 331.653C137.375 331.96 136.828 332.114 136.173 332.114C135.612 332.114 135.116 331.991 134.684 331.744C134.256 331.494 133.919 331.125 133.673 330.636C133.43 330.148 133.309 329.544 133.309 328.824V323.273H135.008V328.619C135.008 329.214 135.173 329.687 135.502 330.04C135.832 330.392 136.26 330.568 136.786 330.568C137.104 330.568 137.421 330.489 137.735 330.33C138.053 330.17 138.316 329.93 138.525 329.608C138.737 329.286 138.841 328.877 138.837 328.381ZM145.444 332.193C144.891 332.193 144.391 332.091 143.944 331.886C143.497 331.678 143.143 331.377 142.882 330.983C142.624 330.589 142.495 330.106 142.495 329.534C142.495 329.042 142.59 328.636 142.78 328.318C142.969 328 143.225 327.748 143.547 327.562C143.869 327.377 144.228 327.237 144.626 327.142C145.024 327.047 145.429 326.975 145.842 326.926C146.365 326.866 146.789 326.816 147.115 326.778C147.441 326.737 147.677 326.67 147.825 326.58C147.973 326.489 148.047 326.341 148.047 326.136V326.097C148.047 325.6 147.906 325.216 147.626 324.943C147.35 324.67 146.937 324.534 146.387 324.534C145.816 324.534 145.365 324.661 145.035 324.915C144.709 325.165 144.484 325.443 144.359 325.75L142.762 325.386C142.952 324.856 143.228 324.428 143.592 324.102C143.959 323.773 144.382 323.534 144.859 323.386C145.336 323.235 145.838 323.159 146.365 323.159C146.713 323.159 147.083 323.201 147.473 323.284C147.867 323.364 148.234 323.511 148.575 323.727C148.92 323.943 149.202 324.252 149.422 324.653C149.641 325.051 149.751 325.568 149.751 326.205V332H148.092V330.807H148.024C147.914 331.027 147.749 331.242 147.53 331.455C147.31 331.667 147.028 331.843 146.683 331.983C146.338 332.123 145.925 332.193 145.444 332.193ZM145.814 330.83C146.283 330.83 146.685 330.737 147.018 330.551C147.355 330.366 147.611 330.123 147.785 329.824C147.963 329.521 148.052 329.197 148.052 328.852V327.727C147.992 327.788 147.874 327.845 147.7 327.898C147.53 327.947 147.334 327.991 147.115 328.028C146.895 328.062 146.681 328.095 146.473 328.125C146.264 328.152 146.09 328.174 145.95 328.193C145.62 328.235 145.319 328.305 145.047 328.403C144.778 328.502 144.562 328.644 144.399 328.83C144.24 329.011 144.16 329.254 144.16 329.557C144.16 329.977 144.316 330.295 144.626 330.511C144.937 330.723 145.333 330.83 145.814 330.83ZM158.634 325.403L157.094 325.676C157.03 325.479 156.927 325.292 156.787 325.114C156.651 324.936 156.465 324.79 156.23 324.676C155.995 324.562 155.702 324.506 155.35 324.506C154.869 324.506 154.467 324.614 154.145 324.83C153.823 325.042 153.662 325.316 153.662 325.653C153.662 325.945 153.77 326.18 153.986 326.358C154.202 326.536 154.55 326.682 155.031 326.795L156.418 327.114C157.221 327.299 157.819 327.585 158.213 327.972C158.607 328.358 158.804 328.86 158.804 329.477C158.804 330 158.653 330.466 158.35 330.875C158.05 331.28 157.632 331.598 157.094 331.83C156.56 332.061 155.941 332.176 155.236 332.176C154.259 332.176 153.461 331.968 152.844 331.551C152.226 331.131 151.848 330.534 151.708 329.761L153.35 329.511C153.452 329.939 153.662 330.263 153.98 330.483C154.298 330.699 154.713 330.807 155.225 330.807C155.781 330.807 156.226 330.691 156.56 330.46C156.893 330.225 157.06 329.939 157.06 329.602C157.06 329.33 156.958 329.1 156.753 328.915C156.552 328.729 156.244 328.589 155.827 328.494L154.35 328.17C153.535 327.985 152.933 327.689 152.543 327.284C152.156 326.879 151.963 326.366 151.963 325.744C151.963 325.229 152.107 324.778 152.395 324.392C152.683 324.006 153.081 323.705 153.588 323.489C154.096 323.269 154.677 323.159 155.333 323.159C156.276 323.159 157.018 323.364 157.56 323.773C158.101 324.178 158.459 324.722 158.634 325.403Z" fill="#1F2937"/>
<path d="M528.842 320.818V331H527.301V322.359H527.241L524.805 323.95V322.479L527.346 320.818H528.842ZM535.211 331.169C534.426 331.166 533.755 330.959 533.198 330.548C532.641 330.137 532.215 329.538 531.92 328.753C531.625 327.967 531.478 327.021 531.478 325.914C531.478 324.81 531.625 323.867 531.92 323.085C532.218 322.303 532.646 321.706 533.203 321.295C533.763 320.884 534.432 320.679 535.211 320.679C535.99 320.679 536.658 320.886 537.215 321.3C537.772 321.711 538.198 322.308 538.493 323.09C538.791 323.869 538.94 324.81 538.94 325.914C538.94 327.024 538.793 327.972 538.498 328.758C538.203 329.54 537.777 330.138 537.22 330.553C536.663 330.964 535.994 331.169 535.211 331.169ZM535.211 329.842C535.901 329.842 536.439 329.505 536.827 328.832C537.218 328.16 537.414 327.187 537.414 325.914C537.414 325.069 537.324 324.355 537.145 323.771C536.97 323.185 536.716 322.741 536.385 322.439C536.057 322.134 535.665 321.982 535.211 321.982C534.525 321.982 533.987 322.32 533.596 322.996C533.204 323.672 533.007 324.645 533.004 325.914C533.004 326.763 533.092 327.48 533.267 328.067C533.446 328.65 533.7 329.093 534.028 329.394C534.356 329.692 534.751 329.842 535.211 329.842ZM546.088 329.091V328.554C546.088 328.17 546.168 327.818 546.327 327.5C546.489 327.179 546.725 326.922 547.033 326.729C547.344 326.534 547.721 326.436 548.161 326.436C548.612 326.436 548.99 326.532 549.295 326.724C549.6 326.917 549.83 327.174 549.986 327.495C550.145 327.817 550.225 328.17 550.225 328.554V329.091C550.225 329.475 550.145 329.828 549.986 330.15C549.827 330.468 549.593 330.725 549.285 330.92C548.98 331.113 548.606 331.209 548.161 331.209C547.714 331.209 547.336 331.113 547.028 330.92C546.72 330.725 546.486 330.468 546.327 330.15C546.168 329.828 546.088 329.475 546.088 329.091ZM547.247 328.554V329.091C547.247 329.376 547.315 329.634 547.451 329.866C547.586 330.098 547.823 330.214 548.161 330.214C548.496 330.214 548.73 330.098 548.862 329.866C548.995 329.634 549.061 329.376 549.061 329.091V328.554C549.061 328.269 548.997 328.01 548.867 327.778C548.742 327.546 548.506 327.43 548.161 327.43C547.83 327.43 547.595 327.546 547.456 327.778C547.316 328.01 547.247 328.269 547.247 328.554ZM540.968 323.264V322.727C540.968 322.343 541.047 321.99 541.206 321.668C541.369 321.347 541.604 321.09 541.912 320.898C542.224 320.705 542.6 320.609 543.041 320.609C543.492 320.609 543.869 320.705 544.174 320.898C544.479 321.09 544.71 321.347 544.865 321.668C545.021 321.99 545.099 322.343 545.099 322.727V323.264C545.099 323.649 545.019 324.002 544.86 324.323C544.705 324.641 544.473 324.898 544.164 325.094C543.859 325.286 543.485 325.382 543.041 325.382C542.59 325.382 542.21 325.286 541.902 325.094C541.597 324.898 541.365 324.641 541.206 324.323C541.047 324.002 540.968 323.649 540.968 323.264ZM542.131 322.727V323.264C542.131 323.549 542.197 323.808 542.33 324.04C542.466 324.272 542.703 324.388 543.041 324.388C543.372 324.388 543.604 324.272 543.737 324.04C543.873 323.808 543.941 323.549 543.941 323.264V322.727C543.941 322.442 543.876 322.184 543.747 321.952C543.617 321.72 543.382 321.604 543.041 321.604C542.709 321.604 542.474 321.72 542.335 321.952C542.199 322.184 542.131 322.442 542.131 322.727ZM541.44 331L548.44 320.818H549.628L542.628 331H541.44Z" fill="#1F2937"/>
<path d="M16 353C16 350.239 18.2386 348 21 348H547C549.761 348 552 350.239 552 353C552 355.761 549.761 358 547 358H21C18.2386 358 16 355.761 16 353Z" fill="#F3F4F6"/>
<path d="M16 353C16 350.239 18.2386 348 21 348H61C63.7614 348 66 350.239 66 353C66 355.761 63.7614 358 61 358H21C18.2386 358 16 355.761 16 353Z" fill="#4C956C"/>
</svg>
