<svg width="334" height="88" viewBox="0 0 334 88" fill="none" xmlns="http://www.w3.org/2000/svg">
<rect width="88" height="88" rx="16" fill="#4C956C"/>
<path d="M48.5 30.2089C53.4705 30.2089 57.4999 34.2384 57.5 39.2089V72.2089C57.5 72.623 57.4578 73.0274 57.3779 73.4179C57.3113 74.0506 57.1435 74.6837 56.8633 75.2939C55.4802 78.3051 51.9175 79.6252 48.9062 78.2421L22.5 66.1142C25.2662 60.0918 32.3906 57.4517 38.4131 60.2177L45.5 63.4726V33.2089C45.5001 31.5521 46.8432 30.2089 48.5 30.2089ZM31.1367 12.706C32.5199 9.69497 36.0826 8.3748 39.0938 9.75774L65.5 21.8857C62.7339 27.9082 55.6094 30.5482 49.5869 27.7822L42.5 24.5273V54.7909C42.5 56.4478 41.1569 57.7909 39.5 57.7909C34.5294 57.7909 30.5 53.7615 30.5 48.7909V15.7909C30.5 15.3769 30.5422 14.9724 30.6221 14.582C30.6888 13.9493 30.8565 13.3161 31.1367 12.706Z" fill="white"/>
<path d="M118.552 63.1614C115.979 63.1614 113.719 62.6837 111.772 61.7283C109.824 60.7362 108.299 59.2847 107.197 57.3739C106.131 55.4631 105.598 53.1297 105.598 50.3737H113.811C113.811 51.5128 113.977 52.4866 114.307 53.295C114.675 54.1034 115.189 54.7281 115.851 55.1691C116.512 55.5733 117.339 55.7754 118.331 55.7754C119.287 55.7754 120.077 55.5917 120.701 55.2242C121.326 54.82 121.785 54.2504 122.079 53.5155C122.373 52.7806 122.52 51.8987 122.52 50.8698V23.9163H130.788V50.8698C130.788 54.8751 129.667 57.9251 127.426 60.0196C125.221 62.1142 122.263 63.1614 118.552 63.1614ZM147.089 62.5V30.5857H135.9V23.9163H166.546V30.5857H155.357V62.5H147.089ZM171.694 62.5V23.9163H179.962V62.5H171.694ZM187.248 62.5V34.7197H194.469L195.13 39.1844C195.975 37.6411 197.169 36.41 198.713 35.4914C200.256 34.536 202.13 34.0583 204.335 34.0583C206.65 34.0583 208.598 34.5544 210.178 35.5465C211.758 36.5387 212.952 37.9718 213.76 39.8458C214.606 41.6832 215.028 43.9431 215.028 46.6256V62.5H206.815V47.3972C206.815 45.3762 206.374 43.8144 205.492 42.7121C204.647 41.5729 203.288 41.0033 201.414 41.0033C200.311 41.0033 199.301 41.2789 198.382 41.8301C197.5 42.3446 196.802 43.0979 196.287 44.09C195.773 45.0822 195.516 46.2765 195.516 47.6728V62.5H187.248ZM234.921 62.5C232.9 62.5 231.118 62.1877 229.575 61.563C228.031 60.9015 226.837 59.8359 225.992 58.366C225.147 56.8962 224.724 54.8935 224.724 52.358V41.6097H219.984V34.7197H224.724L225.606 26.8927H232.992V34.7197H240.102V41.6097H232.992V52.4682C232.992 53.5706 233.231 54.3607 233.709 54.8384C234.223 55.2793 235.087 55.4998 236.299 55.4998H240.102V62.5H234.921ZM259.482 63.1614C256.616 63.1614 254.099 62.5735 251.931 61.3976C249.763 60.185 248.054 58.513 246.805 56.3817C245.592 54.2137 244.986 51.7333 244.986 48.9406C244.986 46.0744 245.592 43.5205 246.805 41.2789C248.017 39.0374 249.708 37.2736 251.876 35.9875C254.044 34.7013 256.561 34.0583 259.427 34.0583C262.22 34.0583 264.663 34.6646 266.758 35.8772C268.852 37.0899 270.488 38.7434 271.664 40.838C272.876 42.8958 273.482 45.2843 273.482 48.0035C273.482 48.371 273.464 48.7936 273.427 49.2713C273.427 49.7122 273.391 50.1716 273.317 50.6493H250.883V45.8539H265.049C264.976 44.3105 264.406 43.0795 263.34 42.1609C262.312 41.2055 261.025 40.7278 259.482 40.7278C258.306 40.7278 257.241 41.0033 256.285 41.5545C255.33 42.1057 254.558 42.9325 253.97 44.0349C253.419 45.1373 253.143 46.5337 253.143 48.224V49.8776C253.143 51.1637 253.382 52.3029 253.86 53.295C254.374 54.2872 255.091 55.0589 256.01 55.61C256.965 56.1612 258.086 56.4368 259.372 56.4368C260.584 56.4368 261.577 56.198 262.348 55.7203C263.157 55.2058 263.781 54.5628 264.222 53.7911H272.656C272.141 55.5549 271.259 57.1534 270.01 58.5865C268.761 59.9829 267.236 61.1036 265.435 61.9488C263.634 62.7572 261.65 63.1614 259.482 63.1614ZM279.562 62.5V34.7197H286.893L287.665 39.7907C288.4 38.6148 289.263 37.6043 290.256 36.7591C291.248 35.914 292.387 35.2525 293.673 34.7748C294.996 34.2971 296.411 34.0583 297.917 34.0583V42.8223H295.161C294.059 42.8223 293.048 42.9509 292.13 43.2081C291.248 43.4286 290.476 43.8145 289.815 44.3656C289.19 44.9168 288.694 45.6701 288.326 46.6256C287.996 47.5442 287.83 48.7017 287.83 50.0981V62.5H279.562ZM302.708 62.5V34.7197H309.929L310.59 39.1844C311.436 37.6411 312.63 36.41 314.173 35.4914C315.717 34.536 317.591 34.0583 319.795 34.0583C322.11 34.0583 324.058 34.5544 325.638 35.5465C327.218 36.5387 328.412 37.9718 329.221 39.8458C330.066 41.6832 330.489 43.9431 330.489 46.6256V62.5H322.276V47.3972C322.276 45.3762 321.835 43.8144 320.953 42.7121C320.108 41.5729 318.748 41.0033 316.874 41.0033C315.772 41.0033 314.761 41.2789 313.843 41.8301C312.961 42.3446 312.262 43.0979 311.748 44.09C311.234 45.0822 310.976 46.2765 310.976 47.6728V62.5H302.708Z" fill="#4C956C"/>
</svg>
