<svg width="153" height="40" viewBox="0 0 153 40" fill="none" xmlns="http://www.w3.org/2000/svg">
<rect width="40" height="40" rx="7.27273" fill="white"/>
<path d="M22.0457 13.7317C24.3049 13.7318 26.1364 15.5633 26.1365 17.8225V32.8225C26.1364 33.0139 26.1154 33.2009 26.0779 33.3811C26.0469 33.6656 25.9724 33.9505 25.8464 34.2249C25.2177 35.5933 23.5988 36.1932 22.2302 35.5647L10.2273 30.052C11.4847 27.3145 14.7232 26.115 17.4607 27.3723L20.6814 28.8509V15.095C20.6816 14.342 21.2927 13.7317 22.0457 13.7317ZM14.1541 5.77566C14.7828 4.40701 16.4016 3.80717 17.7703 4.43582L29.7732 9.94851C28.5159 12.6859 25.2772 13.8852 22.5398 12.6282L19.3191 11.1497V24.9055C19.3188 25.6583 18.7076 26.2686 17.9548 26.2688C15.6956 26.2687 13.8641 24.4372 13.864 22.178V7.178C13.864 6.9865 13.8851 6.79977 13.9226 6.61941C13.9536 6.33482 14.028 6.05011 14.1541 5.77566Z" fill="#4C956C"/>
<path d="M53.8871 29.3007C52.7179 29.3007 51.6906 29.0835 50.8054 28.6492C49.9201 28.1983 49.2269 27.5385 48.7259 26.6699C48.2415 25.8014 47.9993 24.7408 47.9993 23.488H51.7324C51.7324 24.0058 51.8075 24.4485 51.9579 24.8159C52.1249 25.1834 52.3587 25.4673 52.6594 25.6678C52.96 25.8515 53.3359 25.9434 53.7868 25.9434C54.2211 25.9434 54.5802 25.8599 54.8642 25.6928C55.1481 25.5091 55.3569 25.2502 55.4905 24.9161C55.6242 24.5821 55.691 24.1812 55.691 23.7135V11.4619H59.4491V23.7135C59.4491 25.5341 58.9397 26.9205 57.9208 27.8726C56.9186 28.8246 55.5741 29.3007 53.8871 29.3007ZM66.8586 29V14.4935H61.7725V11.4619H75.7028V14.4935H70.6167V29H66.8586ZM78.0428 29V11.4619H81.801V29H78.0428ZM85.1126 29V16.3726H88.3948L88.6954 18.402C89.0796 17.7005 89.6224 17.1409 90.3239 16.7234C91.0255 16.2891 91.8773 16.0719 92.8795 16.0719C93.9318 16.0719 94.817 16.2974 95.5353 16.7484C96.2535 17.1994 96.7963 17.8508 97.1638 18.7027C97.548 19.5378 97.74 20.565 97.74 21.7843V29H94.0069V22.1351C94.0069 21.2164 93.8065 20.5066 93.4056 20.0055C93.0215 19.4877 92.4035 19.2288 91.5516 19.2288C91.0505 19.2288 90.5912 19.3541 90.1736 19.6046C89.7727 19.8385 89.4554 20.1809 89.2216 20.6318C88.9877 21.0828 88.8708 21.6257 88.8708 22.2604V29H85.1126ZM106.782 29C105.864 29 105.054 28.858 104.352 28.5741C103.651 28.2734 103.108 27.789 102.724 27.1209C102.339 26.4528 102.147 25.5425 102.147 24.39V19.5044H99.9926V16.3726H102.147L102.548 12.8149H105.905V16.3726H109.137V19.5044H105.905V24.4401C105.905 24.9412 106.014 25.3003 106.231 25.5174C106.465 25.7179 106.857 25.8181 107.409 25.8181H109.137V29H106.782ZM117.946 29.3007C116.644 29.3007 115.499 29.0334 114.514 28.4989C113.528 27.9477 112.752 27.1877 112.184 26.219C111.633 25.2335 111.357 24.106 111.357 22.8366C111.357 21.5338 111.633 20.3729 112.184 19.3541C112.735 18.3352 113.503 17.5334 114.489 16.9488C115.474 16.3642 116.619 16.0719 117.921 16.0719C119.191 16.0719 120.301 16.3475 121.254 16.8987C122.206 17.4499 122.949 18.2016 123.483 19.1536C124.035 20.089 124.31 21.1747 124.31 22.4107C124.31 22.5777 124.302 22.7698 124.285 22.987C124.285 23.1874 124.268 23.3962 124.235 23.6133H114.038V21.4336H120.477C120.443 20.7321 120.185 20.1725 119.7 19.7549C119.233 19.3207 118.648 19.1035 117.946 19.1035C117.412 19.1035 116.928 19.2288 116.493 19.4793C116.059 19.7299 115.708 20.1057 115.441 20.6068C115.19 21.1079 115.065 21.7426 115.065 22.5109V23.2625C115.065 23.8472 115.174 24.3649 115.391 24.8159C115.625 25.2669 115.95 25.6177 116.368 25.8682C116.802 26.1187 117.312 26.244 117.896 26.244C118.447 26.244 118.898 26.1355 119.249 25.9183C119.617 25.6845 119.901 25.3922 120.101 25.0414H123.934C123.701 25.8431 123.3 26.5697 122.732 27.2211C122.164 27.8559 121.471 28.3653 120.652 28.7495C119.834 29.1169 118.932 29.3007 117.946 29.3007ZM127.074 29V16.3726H130.406L130.757 18.6776C131.091 18.1431 131.483 17.6838 131.934 17.2996C132.385 16.9154 132.903 16.6148 133.488 16.3977C134.089 16.1805 134.732 16.0719 135.417 16.0719V20.0556H134.164C133.663 20.0556 133.204 20.114 132.786 20.231C132.385 20.3312 132.035 20.5066 131.734 20.7571C131.45 21.0077 131.224 21.3501 131.057 21.7843C130.907 22.2019 130.832 22.7281 130.832 23.3628V29H127.074ZM137.595 29V16.3726H140.877L141.177 18.402C141.562 17.7005 142.104 17.1409 142.806 16.7234C143.508 16.2891 144.359 16.0719 145.362 16.0719C146.414 16.0719 147.299 16.2974 148.017 16.7484C148.736 17.1994 149.278 17.8508 149.646 18.7027C150.03 19.5378 150.222 20.565 150.222 21.7843V29H146.489V22.1351C146.489 21.2164 146.289 20.5066 145.888 20.0055C145.504 19.4877 144.886 19.2288 144.034 19.2288C143.533 19.2288 143.073 19.3541 142.656 19.6046C142.255 19.8385 141.937 20.1809 141.704 20.6318C141.47 21.0828 141.353 21.6257 141.353 22.2604V29H137.595Z" fill="white"/>
</svg>
